<?xml version="1.0" encoding="utf-8"?>
<!-- Generator: Adobe Illustrator 25.4.1, SVG Export Plug-In . SVG Version: 6.00 Build 0)  -->
<svg version="1.1" id="Capa_1" xmlns="http://www.w3.org/2000/svg" xmlns:xlink="http://www.w3.org/1999/xlink" x="0px" y="0px"
	 viewBox="0 0 600 413.2" style="enable-background:new 0 0 600 413.2;" xml:space="preserve">
<style type="text/css">
	.st0{clip-path:url(#SVGID_00000006676974829008760970000011243105168354756252_);}
	.st1{fill:#F1F1F4;}
	.st2{fill:#E0F3FF;}
	.st3{fill:url(#SVGID_00000173131539020627335280000005942242765875434892_);}
	.st4{fill:url(#SVGID_00000007415318655365329820000010689567441705844352_);}
	.st5{fill:#E5E2FF;}
	.st6{fill:url(#SVGID_00000174603851949023913820000006212853452565353106_);}
	.st7{opacity:0.62;fill:url(#SVGID_00000145766996176554045000000002341824440943044766_);enable-background:new    ;}
	.st8{opacity:0.62;fill:url(#SVGID_00000111159165482256363760000010869999105842263977_);enable-background:new    ;}
	.st9{opacity:0.5;fill:url(#SVGID_00000087382404692462890180000002345255311712072844_);enable-background:new    ;}
	.st10{fill:#FFFFFF;}
	.st11{fill:url(#SVGID_00000112625733977981652370000004020368051800642194_);}
	.st12{opacity:0.5;fill:url(#SVGID_00000060725303260048404620000002314263501666842031_);enable-background:new    ;}
	.st13{opacity:0.5;fill:url(#SVGID_00000134249410420675940660000011104126530214796190_);enable-background:new    ;}
	.st14{fill:url(#SVGID_00000054967527562794476870000012603266716746904217_);}
	.st15{fill:url(#SVGID_00000028295178082011633850000010013207344646576020_);}
	.st16{opacity:0.76;fill:url(#SVGID_00000041296898374504428810000014531265089153309331_);enable-background:new    ;}
	.st17{opacity:0.76;fill:url(#SVGID_00000078764497901348787520000015417053901748523695_);enable-background:new    ;}
	.st18{opacity:0.76;fill:url(#SVGID_00000095339726254231232740000016426786935245894569_);enable-background:new    ;}
	.st19{fill:#FE9083;}
	.st20{fill:url(#SVGID_00000119118168880844291420000013355466816532159378_);}
	.st21{opacity:0.5;fill:url(#SVGID_00000024684568379885079850000013439586480898331020_);enable-background:new    ;}
	.st22{fill:url(#SVGID_00000061452108764322661190000002432410290703769520_);}
	.st23{opacity:0.5;fill:url(#SVGID_00000058590512212649230780000013465901354299599786_);enable-background:new    ;}
	.st24{fill:url(#SVGID_00000133524575154861856110000012379413981322784143_);}
	.st25{fill:url(#SVGID_00000171700559899740883650000010534058955800384692_);}
	.st26{fill:#CB4D7A;}
	.st27{fill:#EE8183;}
	.st28{fill:url(#SVGID_00000051366614073249582700000011899476731397118615_);}
	.st29{opacity:0.6;fill:url(#SVGID_00000147184369737178064160000009207416985972293260_);enable-background:new    ;}
	.st30{fill:url(#SVGID_00000151511690672787018160000005494620263999651714_);}
	.st31{fill:#E28183;}
	.st32{opacity:0.91;fill:url(#SVGID_00000099634010244500722710000004142556293725068719_);enable-background:new    ;}
	.st33{fill:url(#SVGID_00000076575009473960102610000007442289251386323897_);}
	.st34{opacity:0.6;fill:url(#SVGID_00000098179942613450006920000017693636820807821207_);enable-background:new    ;}
	.st35{fill:url(#SVGID_00000160885528616443922880000001287463404103023260_);}
	.st36{fill:url(#SVGID_00000076565631831536529690000006811777274775673734_);}
	.st37{opacity:0.91;fill:url(#SVGID_00000049215294808185688300000009492949782007389873_);enable-background:new    ;}
	.st38{opacity:0.5;fill:url(#SVGID_00000118394040449050646770000017469021261974295730_);enable-background:new    ;}
	.st39{opacity:0.5;fill:url(#SVGID_00000097462713688194972250000010668899307278384004_);enable-background:new    ;}
	.st40{opacity:0.5;fill:url(#SVGID_00000030482185819854545270000014770235467726388609_);enable-background:new    ;}
	.st41{opacity:0.5;fill:url(#SVGID_00000182527435491814308510000017378229032186633880_);enable-background:new    ;}
	.st42{opacity:0.5;fill:url(#SVGID_00000010304767055401641950000001957236383537206191_);enable-background:new    ;}
	.st43{opacity:0.5;fill:url(#SVGID_00000080894409305168681920000009797122260975050381_);enable-background:new    ;}
	.st44{opacity:0.5;fill:url(#SVGID_00000022558142469431453030000018416238907645439152_);enable-background:new    ;}
	.st45{opacity:0.5;fill:url(#SVGID_00000036248993629849620330000007417405020752531352_);enable-background:new    ;}
	.st46{opacity:0.5;fill:url(#SVGID_00000075149032173037851110000008926943828498402197_);enable-background:new    ;}
	.st47{opacity:0.76;fill:url(#SVGID_00000114058869503465317990000008285998368303344011_);enable-background:new    ;}
	.st48{opacity:0.5;fill:url(#SVGID_00000095329179904200356630000010467141473525828268_);enable-background:new    ;}
	.st49{opacity:0.3;fill:url(#SVGID_00000090256775972025061420000004337346945945038490_);enable-background:new    ;}
	.st50{opacity:0.5;fill:url(#SVGID_00000144328210953473026520000009811759148400341139_);enable-background:new    ;}
	.st51{opacity:0.5;fill:url(#SVGID_00000146459395850959870650000001292385435931527868_);enable-background:new    ;}
	.st52{opacity:0.5;fill:url(#SVGID_00000052824568858612876540000006247177023873257371_);enable-background:new    ;}
	.st53{opacity:0.5;fill:url(#SVGID_00000154401181676183515650000007615318098309062079_);enable-background:new    ;}
	.st54{fill:url(#SVGID_00000168081826878192174870000017379986526409451654_);}
	.st55{fill:#EBEFFF;}
	.st56{opacity:0.5;fill:url(#SVGID_00000152252767117346080090000014708552768521228197_);enable-background:new    ;}
	.st57{opacity:0.3;fill:url(#SVGID_00000160187940989398790630000008297310606653401255_);enable-background:new    ;}
	.st58{opacity:0.5;fill:url(#SVGID_00000119829981018611203560000016598224401101244577_);enable-background:new    ;}
	.st59{opacity:0.5;fill:url(#SVGID_00000008149629823902372140000012425985354848142493_);enable-background:new    ;}
	.st60{opacity:0.5;fill:url(#SVGID_00000008134738351794219920000002946768089170479276_);enable-background:new    ;}
	.st61{opacity:0.5;fill:#7A4AC0;enable-background:new    ;}
	.st62{fill:url(#SVGID_00000174601929161645470950000004744799134181014194_);}
	.st63{fill:url(#SVGID_00000096780803170888299690000005804485426660619676_);}
	.st64{fill:url(#SVGID_00000151537127035046727700000014770275717298600582_);}
	.st65{opacity:0.6;fill:url(#SVGID_00000152944607731973552710000006104496216239358895_);enable-background:new    ;}
	.st66{fill:#38368E;}
	.st67{fill:url(#SVGID_00000072277393519730224310000007732059545277081491_);}
	.st68{fill:url(#SVGID_00000137847628872920174690000015283647226813984390_);}
	.st69{fill:#FFEBED;}
	.st70{fill:#7F9EC9;}
	.st71{fill:#131163;}
	.st72{fill:#C6659C;}
	.st73{fill:#CB5F7D;}
	.st74{fill:#9F4A8B;}
	.st75{fill:#FFBCAF;}
	.st76{opacity:0.6;fill:url(#SVGID_00000066509605511744148640000014111640936053713807_);enable-background:new    ;}
	.st77{fill:url(#SVGID_00000100363160581177531670000010231030710975441554_);}
	.st78{fill:#D2726C;}
	.st79{opacity:0.6;fill:url(#SVGID_00000172438490152206979650000002218138030406975884_);enable-background:new    ;}
	.st80{opacity:0.6;fill:url(#SVGID_00000134227964863316042080000010710385082996848525_);enable-background:new    ;}
	.st81{opacity:0.5;fill:url(#SVGID_00000116193361130543981560000006429070388827175044_);enable-background:new    ;}
	.st82{fill:url(#SVGID_00000030475940990639674700000015322006366510580915_);}
	.st83{fill:url(#SVGID_00000158022217522635062890000008171094498975405450_);}
	.st84{fill:url(#SVGID_00000146500219824893004520000009267760108747518120_);}
	.st85{opacity:0.8;fill:url(#SVGID_00000036232767657153931840000007617591606640345018_);enable-background:new    ;}
	.st86{opacity:0.8;fill:url(#SVGID_00000042003538575109787480000016279362014304255901_);enable-background:new    ;}
	.st87{fill:#34C7FF;}
	.st88{fill:url(#SVGID_00000111902138815082150190000004790181278930517167_);}
	.st89{fill:url(#SVGID_00000111174941903856518440000009802085621754212226_);}
	.st90{fill:url(#SVGID_00000140713517086087419490000007905232992835177631_);}
	.st91{opacity:0.6;fill:#36D1F7;enable-background:new    ;}
	.st92{fill:#744CA2;}
	.st93{opacity:0.6;fill:url(#SVGID_00000019654673963620902180000011962932199743431579_);enable-background:new    ;}
	.st94{opacity:0.3;fill:url(#SVGID_00000061465989076986733790000003214810434244447396_);enable-background:new    ;}
	.st95{opacity:0.3;fill:url(#SVGID_00000022527258296548545110000014428358021552016517_);enable-background:new    ;}
	.st96{opacity:0.3;fill:url(#SVGID_00000168795256126419200890000005614880248781870015_);enable-background:new    ;}
	.st97{opacity:0.3;fill:url(#SVGID_00000021097545617913878850000014596904566621244091_);enable-background:new    ;}
	.st98{fill:#D1D4FB;}
	.st99{fill:#E0FFFF;}
	.st100{fill:url(#SVGID_00000129894905317581190050000012034484995741085608_);}
	.st101{fill:url(#SVGID_00000139979424912439070660000003086424931406778016_);}
	.st102{opacity:0.81;fill:url(#SVGID_00000032633721296600309120000009944947833555301272_);enable-background:new    ;}
	.st103{fill:#473DA2;}
	.st104{fill:url(#SVGID_00000163751357791160714520000010006506662475274151_);}
	.st105{fill:url(#SVGID_00000061454698456185688390000010899583278958699917_);}
	.st106{fill:url(#SVGID_00000005255658320864755440000010539094429073666439_);}
	.st107{fill:url(#SVGID_00000105397592463351979580000013727907738071898810_);}
	.st108{fill:url(#SVGID_00000068660083989849058440000009113058807234569378_);}
	.st109{fill:url(#SVGID_00000068669263651733479070000010636624702435186834_);}
	.st110{opacity:0.73;fill:url(#SVGID_00000125581497981294221790000012903676772581643919_);enable-background:new    ;}
	.st111{fill:#953DA2;}
	.st112{opacity:0.73;fill:url(#SVGID_00000163043200637673943510000003865700326428903048_);enable-background:new    ;}
	.st113{fill-rule:evenodd;clip-rule:evenodd;fill:url(#SVGID_00000034057780560938534260000002065737970113359253_);}
	.st114{fill-rule:evenodd;clip-rule:evenodd;fill:url(#SVGID_00000097465754376107023600000004119875028596289455_);}
	.st115{fill-rule:evenodd;clip-rule:evenodd;fill:url(#SVGID_00000026155368174028265270000018436436006483877760_);}
	.st116{opacity:0.5;fill-rule:evenodd;clip-rule:evenodd;fill:#601734;enable-background:new    ;}
	.st117{fill-rule:evenodd;clip-rule:evenodd;fill:#B3D9FF;}
	.st118{fill:#FF1D9C;}
	.st119{fill:#6877FF;}
	.st120{fill:#4F31E0;}
	.st121{fill-rule:evenodd;clip-rule:evenodd;fill:url(#SVGID_00000034808808726211801640000005340778176238417329_);}
	.st122{fill-rule:evenodd;clip-rule:evenodd;fill:url(#SVGID_00000076600084669192629630000000153855836147383741_);}
	.st123{fill-rule:evenodd;clip-rule:evenodd;fill:url(#SVGID_00000146475831845936039800000003384599706670602119_);}
	.st124{fill-rule:evenodd;clip-rule:evenodd;fill:url(#SVGID_00000080190200882815957230000017260349066426109602_);}
</style>
<g>
	<g id="Capa_2_00000057871020948423755710000011611067874728815546_">
		<g id="illustration">
			<g>
				<defs>
					<rect id="SVGID_1_" width="600" height="400"/>
				</defs>
				<clipPath id="SVGID_00000017500219932971812560000017323264291977147009_">
					<use xlink:href="#SVGID_1_"  style="overflow:visible;"/>
				</clipPath>
				<g style="clip-path:url(#SVGID_00000017500219932971812560000017323264291977147009_);">
					<path class="st1" d="M148.2,196.1c0-0.2,0.1-0.4,0.4-0.4l6.7,0.2c0.6,0,1.1,0.1,1.7,0.3c0.4,0.2,0.8,0.4,1.1,0.7
						c0.3,0.3,0.5,0.7,0.6,1.1c0.1,0.5,0.2,1,0.1,1.5l-0.1,1.9c0,0.5-0.1,1-0.2,1.5c-0.1,0.4-0.4,0.8-0.7,1.1
						c-0.3,0.3-0.7,0.5-1.1,0.7c-0.6,0.2-1.1,0.2-1.7,0.2l-3.6-0.1l-0.8-2.1h-0.1l-0.1,2.1l-2.5-0.1L148.2,196.1z M150.6,202.4
						l4.3,0.1c0.4,0,0.7-0.1,1-0.3c0.3-0.3,0.4-0.7,0.3-1.1l0.1-1.5c0.1-0.4,0-0.8-0.3-1.1c-0.3-0.2-0.6-0.3-1-0.3l-4.1-0.1
						c0,0-0.1,0-0.1,0c0,0,0,0.1,0,0.1L150.6,202.4z"/>
					<path class="st1" d="M162.4,199.9L162.4,199.9l-0.2,2.7c0,0.1,0,0.2,0.1,0.2c0,0,0,0,0,0l7.6,0.2l-0.1,2.3L160,205
						c-0.2,0-0.3-0.1-0.4-0.3c0,0,0-0.1,0-0.1l0.2-8.2c0-0.2,0.1-0.3,0.3-0.4c0,0,0,0,0.1,0l9.6,0.3c0.2,0,0.4,0.1,0.4,0.4l-0.1,2.3
						l-2.4,0.8h-0.1v-1.2c0-0.1,0-0.1-0.1-0.1l-5.1-0.2c0,0-0.1,0-0.1,0c0,0,0,0.1,0,0.1v1.1l4.2,0.1v1.8l-3.5-0.1L162.4,199.9z"/>
					<path class="st1" d="M179.2,199.8h-0.1v-1c0-0.1,0-0.1-0.1-0.1l-4.7-0.1c-0.1,0-0.3,0-0.4,0.1c-0.1,0.1-0.1,0.2-0.1,0.3v0.2
						c0,0.1,0,0.2,0.1,0.3c0.1,0.1,0.2,0.1,0.3,0.1l5.5,0.9c0.3,0,0.6,0.1,0.9,0.3c0.2,0.1,0.4,0.2,0.6,0.4c0.2,0.2,0.3,0.4,0.3,0.6
						c0.1,0.3,0.1,0.6,0.1,0.9v0.7c0,0.3-0.1,0.7-0.2,1c-0.1,0.3-0.3,0.5-0.5,0.7c-0.2,0.2-0.5,0.3-0.8,0.4
						c-0.4,0.1-0.8,0.1-1.2,0.1l-8-0.2l0.1-2.3l7.1,0.2c0.2,0,0.4,0,0.4-0.1c0.1-0.1,0.1-0.3,0.1-0.4v-0.2c0-0.1,0-0.2-0.1-0.3
						c-0.1-0.1-0.2-0.1-0.3-0.1l-5.3-0.8c-0.3,0-0.6-0.1-0.9-0.2c-0.2-0.1-0.4-0.2-0.6-0.4c-0.2-0.2-0.3-0.4-0.3-0.6
						c-0.1-0.3-0.1-0.6-0.1-0.9v-0.6c0-0.6,0.2-1.1,0.6-1.5c0.5-0.4,1.1-0.6,1.7-0.5l8,0.2c0.2,0,0.4,0.1,0.4,0.3c0,0,0,0.1,0,0.1
						l-0.1,1.8L179.2,199.8z"/>
					<path class="st1" d="M182.6,205.7l0.3-8.9l2.5,0.1l-0.3,8.9L182.6,205.7z"/>
					<path class="st1" d="M194.5,202.2c0-0.1,0-0.3,0-0.4c0-0.1,0-0.3,0-0.4v-0.1l2.5,0.1l-0.1,4.4c0,0.2-0.1,0.3-0.3,0.3l-6.7-0.2
						c-0.6,0-1.1-0.1-1.7-0.3c-0.8-0.3-1.5-1-1.7-1.9c-0.1-0.5-0.2-1-0.1-1.5l0.1-1.8c0-0.5,0.1-1,0.2-1.5c0.1-0.4,0.4-0.8,0.7-1.1
						c0.3-0.3,0.7-0.5,1.1-0.7c0.6-0.2,1.1-0.2,1.7-0.2l6.7,0.2c0.2,0,0.4,0.1,0.3,0.4l-0.1,1.9l-2.4,0.8h-0.1v-0.9
						c0-0.1,0-0.1-0.1-0.1l-4.3-0.1c-0.2,0-0.4,0-0.6,0c-0.2,0-0.3,0.1-0.4,0.2c-0.1,0.1-0.2,0.3-0.2,0.4c-0.1,0.2-0.1,0.5-0.1,0.7
						l-0.1,1.6c-0.1,0.4,0,0.8,0.3,1.1c0.3,0.2,0.6,0.4,1,0.4l4.2,0.1c0.1,0,0.1,0,0.1-0.1L194.5,202.2z"/>
					<path class="st1" d="M202.3,197.4c0.3,0,0.5,0.1,0.6,0.4l3.2,6.5c0,0.1,0.1,0.1,0.2,0.2h0.1c0.1,0,0.2,0,0.2-0.1c0,0,0,0,0-0.1
						l0.2-6.7l2.3,0.1l-0.3,8.6c0,0.2-0.1,0.4-0.4,0.3l-3.6-0.1c-0.1,0-0.3,0-0.4-0.1c-0.1-0.1-0.2-0.2-0.2-0.3l-3.3-6.5
						c0-0.1-0.1-0.2-0.2-0.2h-0.1c-0.1,0-0.2,0.1-0.2,0.2l-0.2,6.7l-2.3-0.1l0.3-8.6c0-0.2,0.1-0.4,0.4-0.4L202.3,197.4z"/>
					
						<ellipse transform="matrix(0.7071 -0.7071 0.7071 0.7071 -59.4608 247.5159)" class="st2" cx="269" cy="195.5" rx="155" ry="155"/>
					
						<linearGradient id="SVGID_00000101798560891832376590000006135746132222160008_" gradientUnits="userSpaceOnUse" x1="61.4471" y1="156.3958" x2="61.4471" y2="227.5858" gradientTransform="matrix(0.91 -0.42 -0.42 -0.91 178.18 413.28)">
						<stop  offset="0" style="stop-color:#DBCCFF"/>
						<stop  offset="1" style="stop-color:#D1BBFF"/>
					</linearGradient>
					<path style="fill:url(#SVGID_00000101798560891832376590000006135746132222160008_);" d="M155.1,185.6
						c-2.5-4.1-6.2-7.3-10.6-9.3l-2.4,1.1l5.3,9.6c-0.4,2.2-1.6,4.2-3.2,5.7l0,0c-2.2,0.3-4.5-0.1-6.5-1.2l-4-10.2l-2.4,1.1
						c-1.3,4.6-1.2,9.5,0.3,14c0,0,1,2.3,1.2,2.5c0.9,1.1,3.4,2.3,8.1,2.1l16.2,31c-2.4,4-1,9.2,3.1,11.6c4,2.4,9.2,1,11.6-3.1
						c2.4-4,1-9.2-3.1-11.6c-0.9-0.5-1.8-0.9-2.8-1l-13.3-32.2c3.2-3.3,3.8-6,3.6-7.5C155.9,187.3,155.5,186.4,155.1,185.6z
						 M168.4,238.9l-4.3,2l-3.9-2.7l0.4-4.7l4.3-2l3.9,2.7L168.4,238.9z"/>
					
						<linearGradient id="SVGID_00000136410595821879477330000011304442483227544223_" gradientUnits="userSpaceOnUse" x1="61.4523" y1="153.6158" x2="61.4523" y2="224.8058" gradientTransform="matrix(0.91 -0.42 -0.42 -0.91 178.18 413.28)">
						<stop  offset="0" style="stop-color:#B5A6E7"/>
						<stop  offset="1" style="stop-color:#7760BF"/>
					</linearGradient>
					<path style="fill:url(#SVGID_00000136410595821879477330000011304442483227544223_);" d="M156.3,188.1
						c-2.5-4.1-6.2-7.3-10.6-9.3l-2.4,1.1l5.3,9.6c-0.4,2.2-1.6,4.2-3.2,5.7l0,0c-2.2,0.3-4.5-0.1-6.5-1.2l-4-10.2l-2.4,1.1
						c-1.3,4.6-1.2,9.5,0.3,14c0,0,3.7,4.9,9.2,4.6l16.2,30.9c-2.3,4-1,9.2,3.1,11.6c4,2.3,9.2,1,11.6-3.1s1-9.2-3.1-11.6
						c-0.9-0.5-1.8-0.9-2.8-1l-13.3-32.2C157.7,194.1,156.3,188.1,156.3,188.1z M169.6,241.4l-4.3,2l-3.9-2.7l0.4-4.7l4.3-2l3.9,2.7
						L169.6,241.4z"/>
					
						<rect x="131.9" y="181.8" transform="matrix(0.906 -0.4233 0.4233 0.906 -65.0035 73.5975)" class="st5" width="2.6" height="2.8"/>
					
						<rect x="142.7" y="176.8" transform="matrix(0.906 -0.4233 0.4233 0.906 -61.8801 77.6712)" class="st5" width="2.6" height="2.8"/>
					
						<rect x="164.5" y="239.8" transform="matrix(0.906 -0.4233 0.4233 0.906 -86.4024 93.2954)" class="st5" width="4.7" height="2.8"/>
					
						<linearGradient id="SVGID_00000093878307904074909300000017004289719759026573_" gradientUnits="userSpaceOnUse" x1="61.5192" y1="171.3158" x2="61.5192" y2="201.3258" gradientTransform="matrix(0.91 -0.42 -0.42 -0.91 178.18 413.28)">
						<stop  offset="0" style="stop-color:#B5A6E7"/>
						<stop  offset="1" style="stop-color:#7760BF"/>
					</linearGradient>
					<path style="fill:url(#SVGID_00000093878307904074909300000017004289719759026573_);" d="M145.7,205.9l13.1,25.1
						c2.1,0.1,4-0.8,5.3-2.5l-10.6-26.3C150.4,202.2,147.6,203.6,145.7,205.9z M163,228.8c-0.5,0.4-1.1,0.8-1.7,1.1
						c-0.6,0.3-1.2,0.4-1.8,0.5l-13.1-24.6c0.9-0.8,2-1.5,3.1-2.1c1-0.5,2.1-0.8,3.2-0.9L163,228.8z"/>
					<path class="st5" d="M163,228.8l1-0.2c-1.2,1.7-3.2,2.7-5.3,2.5l0.8-0.6C160.8,230.2,162,229.6,163,228.8z"/>
					
						<linearGradient id="SVGID_00000076571509357598438350000013093562493768756622_" gradientUnits="userSpaceOnUse" x1="56.4934" y1="201.8739" x2="65.0133" y2="201.8739" gradientTransform="matrix(0.91 -0.42 -0.42 -0.91 178.18 413.28)">
						<stop  offset="0" style="stop-color:#8B8BE0"/>
						<stop  offset="1" style="stop-color:#A177B7"/>
					</linearGradient>
					
						<path style="opacity:0.62;fill:url(#SVGID_00000076571509357598438350000013093562493768756622_);enable-background:new    ;" d="
						M145.7,205.9l0.8-0.1c1.8-1.6,4-2.7,6.4-3l0.6-0.5C150.4,202.2,147.6,203.6,145.7,205.9L145.7,205.9z"/>
					
						<linearGradient id="SVGID_00000012453336511526370670000001844644803394791072_" gradientUnits="userSpaceOnUse" x1="61.4983" y1="198.7458" x2="61.4983" y2="203.9058" gradientTransform="matrix(0.91 -0.42 -0.42 -0.91 178.18 413.28)">
						<stop  offset="0" style="stop-color:#FFFFFF"/>
						<stop  offset="1" style="stop-color:#A177B7"/>
					</linearGradient>
					
						<path style="opacity:0.62;fill:url(#SVGID_00000012453336511526370670000001844644803394791072_);enable-background:new    ;" d="
						M142.2,203.6c4.2-0.9,8.2-2.8,11.7-5.4l1.7,4.1c0,0-1.9-1.9-6.2-0.2c-4.9,2-4.7,6-4.7,6L142.2,203.6z"/>
					
						<linearGradient id="SVGID_00000107547084856467966650000003044607292648358555_" gradientUnits="userSpaceOnUse" x1="66.0788" y1="168.2558" x2="66.0788" y2="201.3358" gradientTransform="matrix(0.91 -0.42 -0.42 -0.91 178.18 413.28)">
						<stop  offset="0" style="stop-color:#000000"/>
						<stop  offset="1" style="stop-color:#FFFFFF"/>
					</linearGradient>
					
						<path style="opacity:0.5;fill:url(#SVGID_00000107547084856467966650000003044607292648358555_);enable-background:new    ;" d="
						M155.6,202.3c-0.8-0.5-1.7-0.8-2.6-0.9l12.7,30.6l1.5-1.6L155.6,202.3z"/>
					<path class="st10" d="M155.6,202.3c0,0-1.3,4.1,2.5,6L155.6,202.3z"/>
					
						<linearGradient id="SVGID_00000145032914737397104960000014906584028535508641_" gradientUnits="userSpaceOnUse" x1="280.2989" y1="16" x2="280.2989" y2="105.2" gradientTransform="matrix(1 0 0 -1 0 416)">
						<stop  offset="0" style="stop-color:#6456C0"/>
						<stop  offset="1" style="stop-color:#5F2C95"/>
					</linearGradient>
					<path style="fill:url(#SVGID_00000145032914737397104960000014906584028535508641_);" d="M346.2,400h-47
						c-4.9-27.3-16.4-62.9-16.4-62.9c-2.8-1.6-8.2,0.4-8.2,0.4L257.5,400h-42.9c-2.3-38.6,18.8-82.3,18.8-82.3l0,0
						c-0.4-0.7-0.6-1.6-0.6-2.4c0.4-0.7,0.9-1.4,1.6-1.9c1.2-1.1,2.5-2.1,2.5-2.1l80.1-0.5c0,0,0.8,0.4,1.8,1l0,0
						c1.8,1.1,4.1,2.7,4.1,3.9c0,1.1-0.3,2.1-0.8,3v0C339.3,351.1,346.2,400,346.2,400z"/>
					
						<radialGradient id="SVGID_00000124149246003870593090000007156833396573136786_" cx="298.9104" cy="128.8792" r="27.03" gradientTransform="matrix(0.6431 0.1484 0.3844 -1.6662 -5.3477 536.8894)" gradientUnits="userSpaceOnUse">
						<stop  offset="0" style="stop-color:#4B474B"/>
						<stop  offset="1" style="stop-color:#000000"/>
					</radialGradient>
					
						<path style="opacity:0.5;fill:url(#SVGID_00000124149246003870593090000007156833396573136786_);enable-background:new    ;" d="
						M219.4,363.9c5.7-24.9,18.2-43.3,27.9-41.1c9.6,2.2,12.8,24.2,7.1,49.2c-5.7,24.9-18.2,43.3-27.9,41.1
						C216.8,410.8,213.6,388.8,219.4,363.9z"/>
					
						<radialGradient id="SVGID_00000150792738804363534440000005968938254907585187_" cx="276.7841" cy="144.5355" r="27.03" gradientTransform="matrix(0.6355 -0.178 -0.4613 -1.6466 209.4149 653.9095)" gradientUnits="userSpaceOnUse">
						<stop  offset="0" style="stop-color:#4B474B"/>
						<stop  offset="1" style="stop-color:#000000"/>
					</radialGradient>
					
						<path style="opacity:0.5;fill:url(#SVGID_00000150792738804363534440000005968938254907585187_);enable-background:new    ;" d="
						M307.6,322.9c9.5-2.7,22.8,15.1,29.7,39.8s4.8,46.8-4.8,49.4c-9.5,2.7-22.8-15.1-29.7-39.8S298,325.6,307.6,322.9z"/>
					
						<linearGradient id="SVGID_00000021112717424775936490000009361355673823514794_" gradientUnits="userSpaceOnUse" x1="251.43" y1="47.36" x2="274.82" y2="47.36" gradientTransform="matrix(1 0 0 -1 0 416)">
						<stop  offset="0" style="stop-color:#9E8CEF"/>
						<stop  offset="1" style="stop-color:#CAAFEE"/>
					</linearGradient>
					<path style="fill:url(#SVGID_00000021112717424775936490000009361355673823514794_);" d="M251.9,400l-0.5-0.1
						c5.5-32.2,19.3-59.2,19.5-59.5l0.1-0.1l3.5-3.1l0.3,0.4l-3.5,3.1C270.7,342,257.3,368.5,251.9,400z"/>
					
						<linearGradient id="SVGID_00000103247021796261098870000013443613818241815949_" gradientUnits="userSpaceOnUse" x1="331.53" y1="47.36" x2="354.93" y2="47.36" gradientTransform="matrix(-1 0 0 -1 637.63 416)">
						<stop  offset="0" style="stop-color:#9E8CEF"/>
						<stop  offset="1" style="stop-color:#CAAFEE"/>
					</linearGradient>
					<path style="fill:url(#SVGID_00000103247021796261098870000013443613818241815949_);" d="M305.6,400
						c-5.4-31.5-19.2-58.3-19.8-59.5l-3.1-2.8l0.3-0.4l3.2,2.9c0.1,0.3,14.4,27.5,19.9,59.7L305.6,400z"/>
					
						<linearGradient id="SVGID_00000117676586169291054990000012647335882984167298_" gradientUnits="userSpaceOnUse" x1="277.1808" y1="16" x2="277.1808" y2="105.2" gradientTransform="matrix(1 0 0 -1 0 416)">
						<stop  offset="0" style="stop-color:#CCCCFF"/>
						<stop  offset="1" style="stop-color:#755CBB"/>
					</linearGradient>
					
						<path style="opacity:0.76;fill:url(#SVGID_00000117676586169291054990000012647335882984167298_);enable-background:new    ;" d="
						M323,315.7c0,1.1-0.3,2.1-0.8,3v0c-16.7,3.8-29.4,19.3-29.4,19.3C301.9,355.5,317,400,317,400h-17.8
						c-4.9-27.3-16.4-62.9-16.4-62.9c-2.8-1.6-8.2,0.4-8.2,0.4L257.5,400h-11.1c4-26.2,15.7-58.1,15.7-58.1
						c-11.6-13.5-28.7-24.2-28.7-24.2l0,0l-2-1.3l1.5-1.1c7.4,7.1,31.4,16.4,32.1,16.7l-30.5-18.6c1.2-1.1,2.5-2.1,2.5-2.1l80.1-0.5
						c0,0,0.8,0.4,1.8,1l-21.9,12L323,315.7z"/>
					
						<linearGradient id="SVGID_00000056409189373691503120000005905820819542734980_" gradientUnits="userSpaceOnUse" x1="287.545" y1="60.61" x2="287.545" y2="84.94" gradientTransform="matrix(1 0 0 -1 0 416)">
						<stop  offset="0" style="stop-color:#CCCCFF"/>
						<stop  offset="1" style="stop-color:#755CBB"/>
					</linearGradient>
					
						<polygon style="opacity:0.76;fill:url(#SVGID_00000056409189373691503120000005905820819542734980_);enable-background:new    ;" points="
						282.9,337.1 292.2,331.1 290,337.1 288.4,355.4 					"/>
					
						<linearGradient id="SVGID_00000018232686229347940550000014483341952219877790_" gradientUnits="userSpaceOnUse" x1="259.365" y1="69.55" x2="259.365" y2="93.39" gradientTransform="matrix(1 0 0 -1 0 416)">
						<stop  offset="0" style="stop-color:#CCCCFF"/>
						<stop  offset="1" style="stop-color:#755CBB"/>
					</linearGradient>
					
						<polygon style="opacity:0.76;fill:url(#SVGID_00000018232686229347940550000014483341952219877790_);enable-background:new    ;" points="
						274.7,337.5 264.9,332 244.1,322.6 270.6,340.2 272.2,346.5 					"/>
					<path class="st19" d="M301.5,149.6c0.1,0.4,0.1,0.7,0.1,0.7c-0.5,1.9-1,3.8-1.7,5.7c-1.5,4.3-3.6,8.4-6.2,12.1
						c-0.8,1.1-1.7,2.2-2.7,3.2c-14.6-4.6-21.8-18.9-24.5-26c0,0,0-0.1,0-0.1c-0.5-1.3-0.9-2.4-1.1-3.1l0,0
						c-0.2-0.6-0.2-0.9-0.2-0.9l0.2-0.4v-0.1c0.2-0.5,0.5-1,0.7-1.5c1.6-3.6,3-7.3,4-11.2c0.7-2.6,1.1-4.6,1.3-5.7
						c0.1-0.6,0.1-0.8,0.1-0.8l6.8,3.6l23.4,12.4c-0.3,2-0.5,4-0.5,5.9c0,1.2,0,2.4,0.1,3.3c0.1,1.2,0.2,2.1,0.3,2.7l0,0
						C301.4,149.5,301.4,149.6,301.5,149.6z"/>
					
						<linearGradient id="SVGID_00000011737367119900497740000007464116206004917649_" gradientUnits="userSpaceOnUse" x1="283.596" y1="239.55" x2="283.596" y2="275.16" gradientTransform="matrix(1 0 0 -1 0 416)">
						<stop  offset="0" style="stop-color:#D5CDF8"/>
						<stop  offset="1" style="stop-color:#F3EDFB"/>
					</linearGradient>
					<path style="fill:url(#SVGID_00000011737367119900497740000007464116206004917649_);" d="M295,172.8c-1.4,1.4-3.1,2.6-4.8,3.5
						l-0.1,0.1l-0.1-0.1l0,0c-0.5-0.3-2.2-1.4-4.6-3.1c-6.1-4.6-16.3-13.9-19.3-26.5l0,0c-0.3-1.5-0.6-3-0.7-4.6l0,0
						c0-0.4-0.1-0.8-0.1-1.2c1.6,3.5,3.4,6.8,5.5,9.9c4.1,6.1,10.4,12.7,17.8,12.7c6.4,0,9.7-4.4,11.4-8.4c0.6-1.5,1.1-3,1.4-4.6
						l0,0c0.1-0.4,0.1-0.7,0.2-0.9l0,0c0-0.1,0-0.3,0-0.4c0.1-0.4,0.1-0.7,0.1-0.7S304,163.8,295,172.8z"/>
					
						<linearGradient id="SVGID_00000084517154958047409870000011531721394765012912_" gradientUnits="userSpaceOnUse" x1="265.21" y1="257.35" x2="301.8448" y2="257.35" gradientTransform="matrix(1 0 0 -1 0 416)">
						<stop  offset="0" style="stop-color:#CCCCFF"/>
						<stop  offset="1" style="stop-color:#755CBB"/>
					</linearGradient>
					
						<path style="opacity:0.5;fill:url(#SVGID_00000084517154958047409870000011531721394765012912_);enable-background:new    ;" d="
						M295,172.8c-1.4,1.4-3.1,2.6-4.8,3.5h-0.3c-0.5-0.3-2.2-1.4-4.6-3.1c-6.1-4.6-16.3-13.9-19.3-26.5l0,0c-0.3-1.5-0.6-3-0.7-4.6
						l0,0c0-0.4-0.1-0.8-0.1-1.2c1.6,3.5,3.4,6.8,5.5,9.9c0,0,4,11.1,12.8,16.6c4.4,2.8,7.7,2.4,10.1,0.7c2.2-1.7,3.9-3.9,5-6.5
						c0.8-1.8,1.2-3.7,1.3-5.6c0-0.3,0-0.6,0-0.9c0.6-1.5,1.1-3,1.4-4.6l0,0c0.1-0.4,0.1-0.7,0.2-0.9l0,0c0-0.1,0-0.3,0-0.4
						c0.1-0.4,0.1-0.7,0.1-0.7S304,163.8,295,172.8z"/>
					
						<linearGradient id="SVGID_00000160906748941012261000000009523451809475215000_" gradientUnits="userSpaceOnUse" x1="273.0542" y1="97.2008" x2="273.0542" y2="276.71" gradientTransform="matrix(1 0 0 -1 0 416)">
						<stop  offset="0" style="stop-color:#9E8CEF"/>
						<stop  offset="1" style="stop-color:#CAAFEE"/>
					</linearGradient>
					<path style="fill:url(#SVGID_00000160906748941012261000000009523451809475215000_);" d="M351.1,263.5l-0.2,0.1
						c-0.8,0.1-3.4-0.5-6.7-3.4l0,0l0,0l0,0c-2.8-2.5-6.2-6.5-9.5-13.2c-6.7-13.4-8.6-22.3-8.9-23.9v-0.2l-3.9,6.2
						c-2.6,8-7.7,41-7.6,42.4s4.5,8.3,4.4,9.2l0,0c-0.1,0.9-2.1,2.8-2.6,4.8c-0.4,1.4,2.3,5.7,4.1,8.9l0,0c0.8,1.1,1.3,2.3,1.7,3.6
						c0,1.5-4.7,8.9-4.7,8.9v4l-0.1,0.1l-0.2,0.2l-0.2,0.1c-1.8,1.4-9.4,6.1-33.3,7.4c-28.2,1.5-47.1-7.6-47.1-7.6l1.4-3.9
						c0,0-1.3-1.1-1.4-1.7s1-1.9,1-1.9s-2.8-1.5-2.8-3.4s5.7-7.8,5.5-12.8s-4.6-9.5-5.1-12.3s7.4-9.9,7.4-9.9
						c-6.8-21.6-8.1-50.6-8.1-50.6l-1.4-1.6c0,0-8.1,18.6-15.5,27.7c-0.9,1.1-1.8,2.1-2.8,3.2c-2,2.2-4.1,4.2-6.4,6.1
						c-5.1,4.5-9.8,7.4-10.9,7.2c-1.9-0.4-9.5-15.4-9.1-30.7c0.2-7.3,4.6-15.5,9.1-22c0.5-0.7,1-1.4,1.5-2.1c2.4-3.3,5-6.5,7.8-9.4
						c0.6-0.6,0.9-0.9,0.9-0.9s-1-3.4-1.8-6.3c0-0.1,0-0.1-0.1-0.2c0,0,0-0.1,0-0.1c0,0,0,0,0-0.1c-0.4-1.8-0.7-3.3-0.4-3.7
						c0.6-1,4.3-2.1,4.9-2.9s3.3-13.5,5.3-14.9s5.4-2.3,16.7-6.8l1.7-0.7c12.8-5.1,25.3-11.2,25.3-11.2l4.8-5.9h2.1l-0.7,1.5v0.1
						c0.3,1.5,0.7,3,1.2,4.4c0,0,0,0.1,0,0.1c6.6,20.8,23.6,27.5,23.6,27.5c11.8-8.7,11.6-22.5,11.6-22.5v-1.9l2.2,0.7l1.5,3.6
						c0,0,2.6,4,12.7,8.4c1.9,0.9,3.8,1.8,5.6,2.9c9.3,5.3,19.6,13.4,20.4,15.1c0.1,0.3,0.2,0.6,0.3,0.9l0,0
						c1.1,4.3,3.3,20.3,5.4,26c0.9,2.6,2.6,4.9,4.9,6.6l0,0c0.6,0.4,1.2,0.8,1.9,1c0.2,0.9,0.3,1.8,0.5,2.6
						C361.2,243.6,353,262.2,351.1,263.5z"/>
					
						<linearGradient id="SVGID_00000114038776298252006310000009190077965793882795_" gradientUnits="userSpaceOnUse" x1="198.59" y1="209.105" x2="242.29" y2="209.105" gradientTransform="matrix(1 0 0 -1 0 416)">
						<stop  offset="0" style="stop-color:#CCCCFF"/>
						<stop  offset="1" style="stop-color:#755CBB"/>
					</linearGradient>
					
						<path style="opacity:0.5;fill:url(#SVGID_00000114038776298252006310000009190077965793882795_);enable-background:new    ;" d="
						M242.3,211.8l-8.2,2.8l-1.3-1.5c0,0-8.1,18.6-15.5,27.7c-0.9,1.1-1.8,2.1-2.8,3.2c-2,2.2-4.1,4.2-6.4,6.1l-6.3-27.1l-3.2-20.6
						c2.4-3.3,5-6.5,7.8-9.4c0.6-0.6,0.9-0.9,0.9-0.9s-1-3.4-1.8-6.3c0-0.1,0-0.1-0.1-0.2c0,0,0-0.1,0-0.1c0,0,0,0,0-0.1
						c-0.4-1.8-0.7-3.3-0.4-3.7c0.6-1,4.3-2.1,4.9-2.9s3.3-13.5,5.3-14.9c0,0-1.3,12.2,5.7,27.8l3.4,4.8l10,8
						C234.4,204.4,238.2,209.5,242.3,211.8z"/>
					
						<linearGradient id="SVGID_00000083049195773414882400000017206076350881883548_" gradientUnits="userSpaceOnUse" x1="197.2382" y1="158.83" x2="197.2382" y2="242.74" gradientTransform="matrix(1 0 0 -1 0 416)">
						<stop  offset="0" style="stop-color:#9E8CEF"/>
						<stop  offset="1" style="stop-color:#DAC7F3"/>
					</linearGradient>
					<path style="fill:url(#SVGID_00000083049195773414882400000017206076350881883548_);" d="M218.4,233.9
						c-1.8,13.1-21.3,23.2-21.3,23.2c-4.4,0-9.2-7.6-13.6-16.9s-4.7-36.2-4.9-37.9s-2.7-5-2.9-6.4s4-4.4,4-4.4v-0.1v-0.1
						c-0.4-0.9-2.9-6.1-2.7-7.1s4.8-3.3,4.8-3.3l0.3,5.1c0,0,10.8-2,14.4-10.4l0.6-2.6l1.8,1.2v11c0,0,0.4,1.7,0.9,1.7
						s4.8-2.1,5.6-1.8s1.8,6.2,2.9,6.9s4.3,2.9,4.8,4c0.2,1.4,0.3,2.8,0.2,4.1c-0.1,2.3,0.1,4.6,0.4,6.9
						C214.5,210.3,220.2,220.8,218.4,233.9z"/>
					
						<linearGradient id="SVGID_00000037689845130932009210000001687840898746112927_" gradientUnits="userSpaceOnUse" x1="341.5302" y1="183.0032" x2="397.8435" y2="183.0032" gradientTransform="matrix(1 0 0 -1 0 416)">
						<stop  offset="0" style="stop-color:#A999F1"/>
						<stop  offset="1" style="stop-color:#DAC7F3"/>
					</linearGradient>
					<path style="fill:url(#SVGID_00000037689845130932009210000001687840898746112927_);" d="M397.4,222.7
						c-0.9,1.4-5.3,4.3-6.4,5.4s0,4.9,0,4.9c-11.5,12.3-25,22.6-39.9,30.5l-0.2,0.1c-11.7-7.8-10.7-20.8-6.8-31.6
						c2.6-6.9,6-13.4,10.3-19.4l0,0c1.9-0.8,3.9-1.3,5.9-1.6c0.8,0,1.6,0.2,2.2,0.7c1.4,0.9,2.6,2.3,3.8,1.7
						c1.7-0.9,5.5-9.9,8.1-10.1c1.8-0.2,4.3,1.7,6,2.7c0.7,0.5,1.3,0.8,1.6,0.7c1-0.2,4.2-4.1,4.4-4.2s1.7,1,1.7,1l-1,1.3
						c1,5.5,3.3,10.7,6.8,15.2l3.5-5.1C397.5,214.8,398.3,221.3,397.4,222.7z"/>
					<path class="st26" d="M301.5,149.3c0,0.1,0,0.3,0,0.4c0,0.3-0.1,0.5-0.2,0.8l0,0c-1.2,4.4-6,8.9-12.1,6.8
						c-6.6-2.4-19.2-29.1-19.2-29.1l1.3-5.7l30,24.4l0.3,2.3L301.5,149.3z"/>
					<path class="st27" d="M201.8,144.4c0,0-1.8-10.1-1-17.6c0.5-5.3,0.4-10.6-0.2-15.9c-1-0.4-2.1-0.4-3.1,0
						c-1.3,0.8-4.4,8.5-3,14.7s0.3,21,0.3,21h-2.1l-4.6-6.2l-2.2-0.6c0,0-12.7,12-12.5,19.1l1.7,6.4l15.7-0.5l10.2-11.6L201.8,144.4
						z"/>
					
						<linearGradient id="SVGID_00000026866043799188315690000015997749588749791113_" gradientUnits="userSpaceOnUse" x1="178.945" y1="254.1698" x2="178.945" y2="276.31" gradientTransform="matrix(1 0 0 -1 0 416)">
						<stop  offset="2.000000e-02" style="stop-color:#FFC2A9"/>
						<stop  offset="1" style="stop-color:#FF9595"/>
					</linearGradient>
					<path style="fill:url(#SVGID_00000026866043799188315690000015997749588749791113_);" d="M185.9,139.7c0.3,5,1,9.9,2.1,14.8
						c-0.3,1.8-1.8,3-3.6,3l-0.8-0.9c0,0-0.6,3.2-3.5,3.4l-2.8-2.8l0.7,2.3c-0.6,1.4-2,2.3-3.6,2.3c0,0-4.4-3.4-4.6-7.9l4.3-3.6
						v-2.8l5.1-3.6l0.1-2C181.3,140.6,183.5,139.8,185.9,139.7z"/>
					
						<linearGradient id="SVGID_00000099630903843670293260000004259798994709637815_" gradientUnits="userSpaceOnUse" x1="192.905" y1="254.71" x2="192.905" y2="291.33" gradientTransform="matrix(1 0 0 -1 0 416)">
						<stop  offset="0" style="stop-color:#FFEADB"/>
						<stop  offset="0.99" style="stop-color:#C27CB6"/>
					</linearGradient>
					
						<path style="opacity:0.6;fill:url(#SVGID_00000099630903843670293260000004259798994709637815_);enable-background:new    ;" d="
						M201,124.7c-0.4,1-1,2-1.9,2.7c-1.3,0.6-2.8,1.1-4.2,1.3l-0.1,17.9h-2.1l-4.6-6.2c0,0,2.3,3.6,2.4,6.2l-1.8,0.9l-1.6-5.4
						l-0.7,3.9l0.7,4.8c2.2-1.6,4.9-2.5,7.6-2.4l0.7,1.3c0,0-8.8,7.3-10.9,11.6c0,0,4.4-5.5,14.3-11.6l0.9-2.9l1.3-7
						C201.2,139.7,199.9,129.6,201,124.7z"/>
					
						<linearGradient id="SVGID_00000008117818182638529690000005536931535312288156_" gradientUnits="userSpaceOnUse" x1="191.6674" y1="229.79" x2="191.6674" y2="286.22" gradientTransform="matrix(1 0 0 -1 0 416)">
						<stop  offset="2.000000e-02" style="stop-color:#FFC2A9"/>
						<stop  offset="1" style="stop-color:#FF9595"/>
					</linearGradient>
					<path style="fill:url(#SVGID_00000008117818182638529690000005536931535312288156_);" d="M208.4,155.8
						c-0.8,2.5-9.4,12.7-10.4,14.9c-0.7,1.7-1.2,3.4-1.5,5.1c-4.2,9.2-14.5,10.4-14.5,10.4l-0.5-8.2c0,0-5.5-3.2-6.4-4.9l0,0
						l-0.1-0.3c-0.1-2.5-0.1-5.1,0-7.6l9.6-3.9c4.2-5.4,14.3-11.6,14.3-11.6l0.5-2.8c-7.3-3.6-6.1-14.4-4.8-15.7
						c1-0.8,2.2-1.3,3.5-1.3c0,0,2.7,8.7,4.4,12.8S209.2,153.3,208.4,155.8z"/>
					<path class="st31" d="M179.4,141.9c0,0,1.1,9.9,4.2,14.7c-2.7-3.7-4.2-8.1-4.3-12.6L179.4,141.9z"/>
					<path class="st31" d="M174.2,147.5c0,0,1,8,6,12.5c0,0-4.4-2.2-6-9.7V147.5z"/>
					
						<linearGradient id="SVGID_00000137853361021032356480000013363570228638970272_" gradientUnits="userSpaceOnUse" x1="181.57" y1="238.6" x2="199.32" y2="238.6" gradientTransform="matrix(1 0 0 -1 0 416)">
						<stop  offset="2.000000e-02" style="stop-color:#D1A1D6"/>
						<stop  offset="0.99" style="stop-color:#BD89C4"/>
					</linearGradient>
					
						<path style="opacity:0.91;fill:url(#SVGID_00000137853361021032356480000013363570228638970272_);enable-background:new    ;" d="
						M199.3,168.6c0,0-10.8,10.5-17.8,9.4l0.5,8.2c7.1-1,13.1-6.1,15.1-13C197.7,171.6,198.5,170.1,199.3,168.6z"/>
					
						<linearGradient id="SVGID_00000142140838939462928150000013783454078389678758_" gradientUnits="userSpaceOnUse" x1="398.9961" y1="195.4" x2="398.9961" y2="270.8541" gradientTransform="matrix(1 0 0 -1 0 416)">
						<stop  offset="2.000000e-02" style="stop-color:#FFC2A9"/>
						<stop  offset="1" style="stop-color:#FF9595"/>
					</linearGradient>
					<path style="fill:url(#SVGID_00000142140838939462928150000013783454078389678758_);" d="M428.4,182.9c0,0-10,18.2-21.6,23.8
						h-4l-9.2,13.9c0,0-5.9-3.7-6.4-16c1.2-1.3,2.1-2.9,2.6-4.6c0,0-3.3-2.6-4.2-4.5s-1.2-7.6-1.8-9.9s-6-7.2-7.2-7.8
						s-6.6-0.9-6.6-0.9s-0.8-2,0-2.9s9.2-4.2,13.8-1.1c0.2,1.2,0.4,2.5,0.8,3.7c0.5,1.3,4.5,5.7,5.2,5.7s3.4-2.3,4.5-4
						c3.3-6.3,6.2-12.7,8.7-19.3c0,0,0-0.1,0-0.1c0-0.1,0-0.1,0.1-0.2c0,0,0-0.1,0-0.1c0,0,0,0,0-0.1c1.1-3.9,7.8-11.2,11.3-13.3
						c1-0.2,2,0.5,2.3,1.5c0,0-2.8,8.1-5.8,12.9c-0.5,0.8-1,1.8-1.6,2.8l0,0c-2.5,4.6-5.4,10.7-5.8,11.6l0,0.1l1.6,0.8l4.3-4.1
						l4.4-4.1l10,10.6l-1,1.3l-3.1,4l1.6,0.3l3.7-4.1L428.4,182.9z"/>
					
						<linearGradient id="SVGID_00000069375130923413175710000002739627951150566529_" gradientUnits="userSpaceOnUse" x1="407.9" y1="219.59" x2="407.9" y2="257.1" gradientTransform="matrix(1 0 0 -1 0 416)">
						<stop  offset="0" style="stop-color:#FFEADB"/>
						<stop  offset="0.99" style="stop-color:#C27CB6"/>
					</linearGradient>
					
						<path style="opacity:0.6;fill:url(#SVGID_00000069375130923413175710000002739627951150566529_);enable-background:new    ;" d="
						M426,186.8l-3.2,4.7c0,0-17.4-13.4-21.2-14.6s-5.2-0.4-5.2-0.4l-3.9,5c0,0,7.2,6.4,7.8,15c0,0-2.4-10.9-10.5-14.1
						c0.6,0,3.4-2.3,4.5-4c3.3-6.3,6.2-12.7,8.7-19.3c-0.3,1.1-0.3,2.3,0.2,3.4c0.9,1.6,5.9,0.1,6.2,0l0,0l-5.8,11.6l0,0.1l1.6,0.8
						l4.3-4.1l-2.1,5l15.6,2.8l-3.1,4l1.6,0.3L426,186.8z"/>
					
						<linearGradient id="SVGID_00000080901115234500370030000008665781065020713601_" gradientUnits="userSpaceOnUse" x1="415.325" y1="232.54" x2="415.325" y2="249.3548" gradientTransform="matrix(1 0 0 -1 0 416)">
						<stop  offset="0" style="stop-color:#FFB0B0"/>
						<stop  offset="0.98" style="stop-color:#FFC2A9"/>
					</linearGradient>
					<path style="fill:url(#SVGID_00000080901115234500370030000008665781065020713601_);" d="M413.9,166.7c0,0,3-0.4,5,3.5
						l-0.4,1.3c0,0,3,0.6,5.8,5.4c-2.1,3.2-5.2,5.6-8.8,6.7c0,0-2.9-0.8-3.4-3.3l0.6-1.6l-2.3,1.7c0,0-2.7,0.8-3.9-3.2L413.9,166.7z
						"/>
					
						<linearGradient id="SVGID_00000080199513476669513040000011259659003356126633_" gradientUnits="userSpaceOnUse" x1="425.0636" y1="229.95" x2="425.0636" y2="239.17" gradientTransform="matrix(1 0 0 -1 0 416)">
						<stop  offset="0" style="stop-color:#FFB0B0"/>
						<stop  offset="0.98" style="stop-color:#FFC2A9"/>
					</linearGradient>
					<path style="fill:url(#SVGID_00000080199513476669513040000011259659003356126633_);" d="M429.3,181.6c0.3-2-0.7-3.9-2.5-4.8
						l-6,6.6c0.2,1.4,1.4,2.5,2.8,2.6C423.6,186.1,427.7,184.7,429.3,181.6z"/>
					
						<linearGradient id="SVGID_00000090984189766235869280000009438424142167830423_" gradientUnits="userSpaceOnUse" x1="385.63" y1="211.57" x2="402.78" y2="211.57" gradientTransform="matrix(1 0 0 -1 0 416)">
						<stop  offset="2.000000e-02" style="stop-color:#D1A1D6"/>
						<stop  offset="0.99" style="stop-color:#BD89C4"/>
					</linearGradient>
					
						<path style="opacity:0.91;fill:url(#SVGID_00000090984189766235869280000009438424142167830423_);enable-background:new    ;" d="
						M385.6,195.5c4.8,5,10.6,8.8,17.1,11.1l-4.4,6.7l-9.2-11.6l0.6-1.7C389.8,200,386.1,197.2,385.6,195.5z"/>
					<path class="st31" d="M418.4,171.4c0,0-2.9,4.8-5.8,7.2l-0.6,1.6c0,0,5.6-3.8,7.7-8.2C419.3,171.7,418.9,171.5,418.4,171.4z"/>
					
						<linearGradient id="SVGID_00000038394736218552192630000007171221443116652701_" gradientUnits="userSpaceOnUse" x1="361.7867" y1="152.3788" x2="361.7867" y2="236.89" gradientTransform="matrix(1 0 0 -1 0 416)">
						<stop  offset="0" style="stop-color:#CCCCFF"/>
						<stop  offset="1" style="stop-color:#755CBB"/>
					</linearGradient>
					
						<path style="opacity:0.5;fill:url(#SVGID_00000038394736218552192630000007171221443116652701_);enable-background:new    ;" d="
						M397.4,222.7c-0.9,1.4-5.3,4.3-6.4,5.4s0,4.9,0,4.9c-11.5,12.3-25,22.6-39.9,30.5l-0.2,0.1c-1.5,0.2-8.9-1.9-16.3-16.7
						c-6.7-13.4-8.6-22.3-8.9-23.9v-0.2l1.6-2.2l2.4-27.3l1.7,5.5c6.4-7.8,12.5-19.7,12.5-19.7l0.3,0.9l0,0c1.1,4.3,3.3,20.3,5.4,26
						c0.9,2.6,2.6,4.9,4.9,6.6l0,0l0,0c-5.9,5.4-8.9,13.2-10.3,19.4c-0.8,3.3-1.3,6.6-1.4,10c1.5-6,3.8-11.7,6.8-17
						c2-3.3,4.4-6.3,7.3-8.9c1.8-1.6,3.7-3.2,5.7-4.6c1.4,0.9,2.6,2.3,3.8,1.7c-7.8,11.7-7.6,34.9-0.3,30.5s9-13.8,9-13.8
						c-1.7-11.4-1.2-24.3,0.2-26.8c1.7,0,6.5,3.4,6.8,3.4c-0.4,7.9,1.7,15.8,5.9,22.6l4.2-6.4c-3.6-6.1-5.6-13.1-5.6-20.2
						c0.2-0.1,1.7,1,1.7,1l-1,1.3c1,5.5,3.3,10.7,6.7,15.2l3.5-5.1C397.5,214.8,398.3,221.3,397.4,222.7z"/>
					
						<linearGradient id="SVGID_00000052083117465057350930000005074568634802250159_" gradientUnits="userSpaceOnUse" x1="175.69" y1="169.4154" x2="317" y2="169.4154" gradientTransform="matrix(1 0 0 -1 0 416)">
						<stop  offset="0" style="stop-color:#CCCCFF"/>
						<stop  offset="1" style="stop-color:#755CBB"/>
					</linearGradient>
					
						<path style="opacity:0.5;fill:url(#SVGID_00000052083117465057350930000005074568634802250159_);enable-background:new    ;" d="
						M317,306.8v4l-0.1,0.1l-0.2,0.2l-0.2,0.1c-1.8,1.4-9.4,6.1-33.3,7.4c-28.2,1.5-47.1-7.6-47.1-7.6l1.4-3.9c0,0-1.3-1.1-1.4-1.7
						s1-1.9,1-1.9s-2.8-1.5-2.8-3.4c0-1.7,4.6-6.7,5.4-11.3c0.1-0.5,0.1-1,0.1-1.5c-0.2-5-4.5-9.4-5.1-12.3l0,0
						c-0.6-2.8,7.4-9.9,7.4-9.9c-6.8-21.6-8.1-50.6-8.1-50.6l-1.3-1.6c0,0-8.1,18.6-15.5,27.7s-18.2,16.9-20.1,16.5
						c-4.4,0-9.2-7.6-13.6-16.9s-4.7-36.2-4.9-37.9s-2.7-5-2.9-6.4c4.7,8.1,12.3,5.8,12.3,5.8c-5.5,0.1-8.3-10.1-8.3-10.1v-0.1v-0.1
						l-2.7-7.1c0.3,0.3,6.6,7.3,12.6,3c6.2-4.4,9.4-13,9.4-13v11c0,0,0.4,1.7,0.9,1.7c-0.5,5.8-1.5,11.6-2.7,17.3
						c-2.8,13.1-6.7,25.8-6.7,25.8s10.4-5.7,14.1-20.1c1.4-5.6,2.1-11.4,1.9-17.2c-0.1-2.4-0.4-4.8-0.8-7.2c0-0.1,0-0.1-0.1-0.2
						c0,0,0-0.1,0-0.1l0,0l1,2.1l1.9,4.8c2.2,18.5-2.4,46.3-2.4,46.3c6.7-8.3,8.1-26.8,7.8-31.3c-0.1-2.1-0.3-4.8-0.4-6.9
						c-0.1-2.4-0.2-4.1-0.2-4.1l13.7,8.2l-2.5-8l10,8c0,0,9,10.8,18.2,12.1s43.1,0.5,43.1,0.5s-29.4,1.9-38,4.4s-10.2,5.4-10.2,5.4
						c6.2,31.6,40.6,42.2,41.7,42.6c-31.2-4.7-45.7-31.2-45.7-31.2s-0.5,14.9,1.9,20.6s16.6,19.6,34.7,22.5c1.5,0.2,3,0.4,4.5,0.5
						c15.3,0.7,28-7.1,29.3-8l0.1-0.1l0,0c-0.5,0.8-6.8,9.6-32.2,10.6c-1.5,0.1-3,0-4.5,0l0,0c-23.5-1-35.5-16.7-35.5-16.7
						s-8.7,4.7-3.1,11.6l0.2,0.2c1.6,1.9,5.2,4.2,9.5,6.6l0.4,0.2c5.2,2.9,11.2,5.8,15.9,8.2h0.1c2.3,1.1,4.4,2.3,6.5,3.7l0,0
						c1.3,1,1.6,1.6,0.3,1.7c-6.6,0.8-31.4-4.7-32.5-3.2s1.2,5.4,1.2,5.4c22.8,11.3,71.7,5.7,73.2,5.6C272.5,318.3,239,305,239,305
						l1.1,3.9c12.9,4.1,26.2,6.4,39.7,6.8c21.5,0.5,34.9-5,34.9-5L317,306.8z"/>
					
						<linearGradient id="SVGID_00000107587479133170655870000006746333045840220317_" gradientUnits="userSpaceOnUse" x1="300.31" y1="193.065" x2="327.31" y2="193.065" gradientTransform="matrix(1 0 0 -1 0 416)">
						<stop  offset="0" style="stop-color:#CCEDFF"/>
						<stop  offset="1" style="stop-color:#755CBB"/>
					</linearGradient>
					
						<path style="opacity:0.5;fill:url(#SVGID_00000107587479133170655870000006746333045840220317_);enable-background:new    ;" d="
						M300.3,216.9c0,0,16.3,0.9,27,3.7l-5.5,8.4C315.4,223.8,308.1,219.7,300.3,216.9z"/>
					
						<linearGradient id="SVGID_00000182509630817547645300000014043755220064336557_" gradientUnits="userSpaceOnUse" x1="275.8" y1="145.6444" x2="315.51" y2="145.6444" gradientTransform="matrix(1 0 0 -1 0 416)">
						<stop  offset="0" style="stop-color:#CCEDFF"/>
						<stop  offset="1" style="stop-color:#755CBB"/>
					</linearGradient>
					
						<path style="opacity:0.5;fill:url(#SVGID_00000182509630817547645300000014043755220064336557_);enable-background:new    ;" d="
						M315.5,261.7c0,0-10.1,8.5-20.1,12.4c-6.3,2.4-12.9,3.9-19.6,4.3c0,0,5.7,1.7,19.9-0.6s19-9.9,19-9.9L315.5,261.7z"/>
					
						<linearGradient id="SVGID_00000057145746264001796120000008939705664430592954_" gradientUnits="userSpaceOnUse" x1="277.6388" y1="127.7185" x2="320.06" y2="127.7185" gradientTransform="matrix(1 0 0 -1 0 416)">
						<stop  offset="0" style="stop-color:#CCEDFF"/>
						<stop  offset="1" style="stop-color:#755CBB"/>
					</linearGradient>
					
						<path style="opacity:0.5;fill:url(#SVGID_00000057145746264001796120000008939705664430592954_);enable-background:new    ;" d="
						M320.1,294.3L320.1,294.3c-18.8,4.9-42.6-2.1-42.4-3s6.5,0.4,21.2-2.6c14.2-2.9,19.4-7.9,19.7-8.2c-0.1,0.9-2.1,2.8-2.6,4.8
						C315.5,286.8,318.2,291.1,320.1,294.3z"/>
					
						<linearGradient id="SVGID_00000177480523811025181700000017423369618966140817_" gradientUnits="userSpaceOnUse" x1="241.13" y1="172.16" x2="241.13" y2="219.77" gradientTransform="matrix(1 0 0 -1 0 416)">
						<stop  offset="0" style="stop-color:#CCEDFF"/>
						<stop  offset="1" style="stop-color:#755CBB"/>
					</linearGradient>
					
						<path style="opacity:0.5;fill:url(#SVGID_00000177480523811025181700000017423369618966140817_);enable-background:new    ;" d="
						M269,219.4c-16,1.6-20.4,6.1-20.4,6.1c-4.5,0.6-14.6-11-14.6-11l-1.3-1.5c0,0-8.1,18.6-15.5,27.7c-0.9,1.1-1.8,2.1-2.8,3.2
						l1.1-2.4c0,0,1.7-0.8,2.2-9.9s-3.8-22.5-3.8-24.3s-0.7-11.1-0.7-11.1l13.7,8.2l-2.5-8l10,8c0,0,3.9,5.9,13.8,10.8
						C257.5,219.8,267.9,219.5,269,219.4z"/>
					
						<linearGradient id="SVGID_00000021820275112760417290000007810049602158669237_" gradientUnits="userSpaceOnUse" x1="244.965" y1="168.17" x2="244.965" y2="204.25" gradientTransform="matrix(1 0 0 -1 0 416)">
						<stop  offset="0" style="stop-color:#CCEDFF"/>
						<stop  offset="1" style="stop-color:#755CBB"/>
					</linearGradient>
					
						<path style="opacity:0.5;fill:url(#SVGID_00000021820275112760417290000007810049602158669237_);enable-background:new    ;" d="
						M232.7,213l9.6-1.2c3.7,2.2,7.5,4.1,11.5,5.6l-6.4,9.4c0,0,2.5,13.4,9.8,21c0,0-19.3-10.7-22-19.8L232.7,213z"/>
					
						<linearGradient id="SVGID_00000133495427968530231900000011419170372233815435_" gradientUnits="userSpaceOnUse" x1="187.925" y1="214.2726" x2="187.925" y2="241.55" gradientTransform="matrix(1 0 0 -1 0 416)">
						<stop  offset="0" style="stop-color:#CCEDFF"/>
						<stop  offset="1" style="stop-color:#755CBB"/>
					</linearGradient>
					
						<path style="opacity:0.5;fill:url(#SVGID_00000133495427968530231900000011419170372233815435_);enable-background:new    ;" d="
						M176.9,184.4l2.7,7.2c0,0,2.8,9.7,8.3,10.1s10.9-16.3,10.9-16.3v-11c0,0-5.9,12.6-12.2,14S176.9,184.4,176.9,184.4z"/>
					
						<linearGradient id="SVGID_00000090289974952474598190000004318972629970441109_" gradientUnits="userSpaceOnUse" x1="210" y1="238.285" x2="221" y2="238.285" gradientTransform="matrix(1 0 0 -1 0 416)">
						<stop  offset="0" style="stop-color:#CCEDFF"/>
						<stop  offset="1" style="stop-color:#755CBB"/>
					</linearGradient>
					
						<path style="opacity:0.5;fill:url(#SVGID_00000090289974952474598190000004318972629970441109_);enable-background:new    ;" d="
						M210,178.7c0,0,4.9,9.9,11,12.9c0,0-7.2-17.5-5.7-27.8C215.3,163.8,212.6,165.5,210,178.7z"/>
					
						<linearGradient id="SVGID_00000106857678490459403140000003135128517125493660_" gradientUnits="userSpaceOnUse" x1="329.445" y1="172.14" x2="329.445" y2="222.68" gradientTransform="matrix(1 0 0 -1 0 416)">
						<stop  offset="0" style="stop-color:#CCCCFF"/>
						<stop  offset="1" style="stop-color:#755CBB"/>
					</linearGradient>
					
						<path style="opacity:0.76;fill:url(#SVGID_00000106857678490459403140000003135128517125493660_);enable-background:new    ;" d="
						M329.7,193.3l1.7,5.5l1.7,45.1c-3.2-6.7-5.7-13.6-7.4-20.8l1.6-2.4C327.3,220.6,330,203.6,329.7,193.3z"/>
					
						<linearGradient id="SVGID_00000170995150735430544960000018124429785836110248_" gradientUnits="userSpaceOnUse" x1="386.2676" y1="183" x2="386.2676" y2="209.42" gradientTransform="matrix(1 0 0 -1 0 416)">
						<stop  offset="0" style="stop-color:#CCCCFF"/>
						<stop  offset="1" style="stop-color:#755CBB"/>
					</linearGradient>
					
						<path style="opacity:0.5;fill:url(#SVGID_00000170995150735430544960000018124429785836110248_);enable-background:new    ;" d="
						M382.1,206.6c0,0-1,22.1,8.4,24l0.5,2.4C391,233,378.8,232.5,382.1,206.6z"/>
					
						<linearGradient id="SVGID_00000049213872859751781960000001549632565807685266_" gradientUnits="userSpaceOnUse" x1="356.315" y1="184.19" x2="356.315" y2="204.38" gradientTransform="matrix(1 0 0 -1 0 416)">
						<stop  offset="0" style="stop-color:#CCCCFF"/>
						<stop  offset="1" style="stop-color:#755CBB"/>
					</linearGradient>
					
						<path style="opacity:0.3;fill:url(#SVGID_00000049213872859751781960000001549632565807685266_);enable-background:new    ;" d="
						M366.4,213.3c0,0-0.4,0.8-3.8-1.7c0,0-11.8,8.4-16.4,20.2c0,0,7.3-10.9,11.2-12s4.8,3.2,4.8,3.2S363.8,216.8,366.4,213.3z"/>
					
						<linearGradient id="SVGID_00000147181152358373461580000013728323559420412822_" gradientUnits="userSpaceOnUse" x1="182.218" y1="212.53" x2="182.218" y2="220.0277" gradientTransform="matrix(1 0 0 -1 0 416)">
						<stop  offset="0" style="stop-color:#CCEDFF"/>
						<stop  offset="1" style="stop-color:#755CBB"/>
					</linearGradient>
					
						<path style="opacity:0.5;fill:url(#SVGID_00000147181152358373461580000013728323559420412822_);enable-background:new    ;" d="
						M175.7,196c0,0,4.6,8.4,13.1,5.8c0,0-5.1,3.4-10.2,0.6C178.5,202.4,175.4,196.9,175.7,196z"/>
					
						<linearGradient id="SVGID_00000152957074117103619350000008941467904195029155_" gradientUnits="userSpaceOnUse" x1="202.2299" y1="189.65" x2="202.2299" y2="230.65" gradientTransform="matrix(1 0 0 -1 0 416)">
						<stop  offset="0" style="stop-color:#CCCCFF"/>
						<stop  offset="1" style="stop-color:#755CBB"/>
					</linearGradient>
					
						<path style="opacity:0.5;fill:url(#SVGID_00000152957074117103619350000008941467904195029155_);enable-background:new    ;" d="
						M205.5,185.4c0,0,6.3,23.4-10.1,41c6.7-3.9,11.4-10.5,13-18.1C209.8,200.5,208.8,192.5,205.5,185.4z"/>
					
						<linearGradient id="SVGID_00000163051663951425739230000016938265132772726685_" gradientUnits="userSpaceOnUse" x1="307.6712" y1="218.52" x2="307.6712" y2="249.35" gradientTransform="matrix(1 0 0 -1 0 416)">
						<stop  offset="0" style="stop-color:#CCEDFF"/>
						<stop  offset="1" style="stop-color:#755CBB"/>
					</linearGradient>
					
						<path style="opacity:0.5;fill:url(#SVGID_00000163051663951425739230000016938265132772726685_);enable-background:new    ;" d="
						M317.6,166.6c0,0-0.7,10.6-5.8,18.1s-15.1,12.7-15.1,12.7s12.6-4.6,18.4-11.2S317.6,166.6,317.6,166.6z"/>
					
						<linearGradient id="SVGID_00000120551730044825450330000001688311703450012819_" gradientUnits="userSpaceOnUse" x1="267.2433" y1="222.68" x2="267.2433" y2="265.24" gradientTransform="matrix(1 0 0 -1 0 416)">
						<stop  offset="0" style="stop-color:#CCEDFF"/>
						<stop  offset="1" style="stop-color:#755CBB"/>
					</linearGradient>
					
						<path style="opacity:0.5;fill:url(#SVGID_00000120551730044825450330000001688311703450012819_);enable-background:new    ;" d="
						M253.2,150.8c0.1,6,1.1,12,2.8,17.8c2.8,9,27.5,24.7,27.5,24.7s-25.4-10.6-30.4-20.1S253.2,150.8,253.2,150.8z"/>
					
						<linearGradient id="SVGID_00000127031664837515462620000006044478592498509714_" gradientUnits="userSpaceOnUse" x1="252.9" y1="214.8977" x2="323.99" y2="214.8977" gradientTransform="matrix(1 0 0 -1 0 416)">
						<stop  offset="0" style="stop-color:#8642A0"/>
						<stop  offset="1" style="stop-color:#6456C0"/>
					</linearGradient>
					<path style="fill:url(#SVGID_00000127031664837515462620000006044478592498509714_);" d="M252.9,192.8v14.4
						c0,0,33.1-0.3,70.2,2.2l0.9-12.9C300.4,193.9,276.6,192.7,252.9,192.8z"/>
					<path class="st55" d="M259,196.1c0-0.2,0.1-0.4,0.4-0.4l6.7,0.2c0.6,0,1.1,0.1,1.7,0.3c0.4,0.2,0.8,0.4,1.1,0.7
						c0.3,0.3,0.5,0.7,0.6,1.1c0.1,0.5,0.2,1,0.1,1.5l0,1.9c0,0.5-0.1,1-0.2,1.5c-0.3,0.9-0.9,1.5-1.8,1.8c-0.6,0.2-1.1,0.2-1.7,0.2
						l-3.6-0.1l-0.8-2.1h-0.1l-0.1,2.1l-2.5-0.1L259,196.1z M261.3,202.4l4.3,0.1c0.4,0,0.7-0.1,1-0.3c0.3-0.3,0.4-0.7,0.3-1.1
						l0-1.5c0.1-0.4,0-0.8-0.3-1.1c-0.3-0.2-0.6-0.3-1-0.3l-4.1-0.1c0,0-0.1,0-0.1,0c0,0,0,0.1,0,0.1L261.3,202.4z"/>
					<path class="st55" d="M273.3,199.9L273.3,199.9l-0.2,2.7c0,0.1,0,0.2,0.1,0.2c0,0,0,0,0,0l7.5,0.2l-0.1,2.3l-9.9-0.3
						c-0.2,0-0.3-0.1-0.4-0.3c0,0,0-0.1,0-0.1l0.2-8.2c0-0.2,0.1-0.3,0.3-0.4c0,0,0,0,0.1,0l9.6,0.3c0.2,0,0.3,0.1,0.4,0.3
						c0,0,0,0.1,0,0.1l-0.1,2.3l-2.4,0.8h-0.1v-1.2c0-0.1,0-0.1-0.1-0.1l-5.1-0.2c0,0-0.1,0-0.1,0c0,0,0,0.1,0,0.1v1.1l4.2,0.1
						l0,1.8l-3.5-0.1L273.3,199.9z"/>
					<path class="st55" d="M290,199.8h-0.1v-1c0-0.1,0-0.1-0.1-0.1l-4.7-0.1c-0.1,0-0.3,0-0.4,0.1c-0.1,0.1-0.1,0.2-0.1,0.3v0.2
						c0,0.1,0,0.2,0.1,0.3c0.1,0.1,0.2,0.1,0.3,0.1l5.5,0.9c0.3,0,0.6,0.1,0.9,0.3c0.2,0.1,0.4,0.2,0.6,0.4c0.2,0.2,0.3,0.4,0.3,0.6
						c0.1,0.3,0.1,0.6,0.1,0.9v0.7c0,0.3-0.1,0.7-0.2,1c-0.1,0.3-0.3,0.5-0.5,0.7c-0.2,0.2-0.5,0.3-0.8,0.4
						c-0.4,0.1-0.8,0.1-1.2,0.1l-8-0.2l0.1-2.3l7.1,0.2c0.2,0,0.3,0,0.4-0.1c0.1-0.1,0.1-0.3,0.1-0.4v-0.2c0-0.1,0-0.2-0.1-0.3
						c-0.1-0.1-0.2-0.1-0.3-0.1l-5.3-0.8c-0.3,0-0.6-0.1-0.9-0.2c-0.2-0.1-0.4-0.2-0.6-0.4c-0.2-0.2-0.3-0.4-0.3-0.6
						c-0.1-0.3-0.1-0.6-0.1-0.9v-0.6c0-0.6,0.2-1.1,0.6-1.5c0.5-0.4,1.1-0.6,1.7-0.5l8,0.2c0.2,0,0.4,0.1,0.4,0.3c0,0,0,0.1,0,0.1
						l-0.1,1.8L290,199.8z"/>
					<path class="st55" d="M293.4,205.7l0.3-8.9l2.5,0.1l-0.3,8.9L293.4,205.7z"/>
					<path class="st55" d="M305.3,202.2c0-0.1,0-0.3,0-0.4c0-0.1,0-0.2,0-0.4v-0.1l2.5,0.1l-0.1,4.4c0,0.2-0.1,0.3-0.3,0.3l-6.7-0.2
						c-0.6,0-1.1-0.1-1.7-0.3c-0.9-0.3-1.5-1-1.7-1.9c-0.1-0.5-0.2-1-0.1-1.5l0.1-1.8c0-0.5,0.1-1,0.2-1.5c0.1-0.4,0.4-0.8,0.7-1.1
						c0.3-0.3,0.7-0.6,1.1-0.7c0.6-0.2,1.1-0.2,1.7-0.2l6.7,0.2c0.2,0,0.3,0.1,0.3,0.3c0,0,0,0.1,0,0.1l-0.1,1.9l-2.4,0.8h-0.1v-0.9
						c0-0.1,0-0.1-0.1-0.1l-4.3-0.1c-0.2,0-0.4,0-0.6,0c-0.2,0-0.3,0.1-0.4,0.2c-0.1,0.1-0.2,0.3-0.2,0.4c-0.1,0.2-0.1,0.5-0.1,0.7
						v1.6c-0.1,0.4,0,0.8,0.3,1.1c0.3,0.2,0.6,0.4,1,0.4l4.2,0.1c0.1,0,0.1,0,0.1-0.1L305.3,202.2z"/>
					<path class="st55" d="M313.1,197.4c0.3,0,0.5,0.1,0.6,0.4l3.2,6.5c0,0.1,0.1,0.1,0.2,0.2h0.1c0.1,0,0.2,0,0.2-0.1
						c0,0,0,0,0-0.1l0.2-6.7l2.3,0.1l-0.3,8.6c0,0.2-0.1,0.4-0.4,0.3l-3.6-0.1c-0.1,0-0.3,0-0.4-0.1c-0.1-0.1-0.2-0.2-0.2-0.3
						l-3.3-6.5c0-0.1-0.1-0.2-0.2-0.2h-0.1c-0.1,0-0.2,0-0.2,0.1c0,0,0,0,0,0.1l-0.2,6.7l-2.3-0.1l0.3-8.6c0-0.2,0.1-0.4,0.4-0.4
						L313.1,197.4z"/>
					
						<linearGradient id="SVGID_00000087407061391106904100000010217507596184970135_" gradientUnits="userSpaceOnUse" x1="259" y1="255.895" x2="305.29" y2="255.895" gradientTransform="matrix(1 0 0 -1 0 416)">
						<stop  offset="0" style="stop-color:#CCCCFF"/>
						<stop  offset="1" style="stop-color:#755CBB"/>
					</linearGradient>
					
						<path style="opacity:0.5;fill:url(#SVGID_00000087407061391106904100000010217507596184970135_);enable-background:new    ;" d="
						M305.3,152.7c-0.8,9.3-3.6,15.8-6.6,20.1c-4.2,6-8.7,8.1-8.7,8.1c-4.2-1.8-8.2-4.2-11.8-7.1c-9.1-7.4-15.7-17.3-19.2-28.5
						c6,14.5,14.9,23.4,21.6,28.3c2.9,2.2,6.1,4.1,9.4,5.5v-4.6c-1.1-0.4-2.1-0.9-3.1-1.4c-11.8-5.9-18-18.4-20.9-26.4l0,0
						c-0.9-2.4-1.6-4.9-2.2-7.4h2.1l-0.7,1.5v0.1c0.3,1.5,0.7,3,1.2,4.4c0,0,0,0.1,0,0.1c6.6,20.8,23.6,27.5,23.6,27.5
						c11.8-8.7,11.6-22.5,11.6-22.5v-1.9l2.2,0.7L305.3,152.7z"/>
					
						<linearGradient id="SVGID_00000150781805585851810560000013575817867205687722_" gradientUnits="userSpaceOnUse" x1="377.9508" y1="186.02" x2="377.9508" y2="212.79" gradientTransform="matrix(1 0 0 -1 0 416)">
						<stop  offset="0" style="stop-color:#CCCCFF"/>
						<stop  offset="1" style="stop-color:#755CBB"/>
					</linearGradient>
					
						<path style="opacity:0.3;fill:url(#SVGID_00000150781805585851810560000013575817867205687722_);enable-background:new    ;" d="
						M375.3,203.2c0,0-3.2,10.5-0.2,26.8c0,0,1.5-20.6,2.6-22.4s4.3-0.9,4.3-0.9C379.9,205.3,377.6,204.2,375.3,203.2z"/>
					
						<linearGradient id="SVGID_00000147202462034111170900000014031633197078572180_" gradientUnits="userSpaceOnUse" x1="340.135" y1="155.82" x2="340.135" y2="236.89" gradientTransform="matrix(1 0 0 -1 0 416)">
						<stop  offset="0" style="stop-color:#CCCCFF"/>
						<stop  offset="1" style="stop-color:#755CBB"/>
					</linearGradient>
					
						<path style="opacity:0.5;fill:url(#SVGID_00000147202462034111170900000014031633197078572180_);enable-background:new    ;" d="
						M344.2,260.2c-2.8-2.5-6.2-6.5-9.5-13.2c-6.7-13.4-8.6-22.3-8.9-23.9l1.6-2.4l2.1-20.6l2-1.2c5.1-6,9.3-12.6,12.5-19.7
						c0.1,0.3,0.2,0.6,0.3,0.9l0,0c1.1,4.3,3.3,20.3,5.4,26c0.9,2.6,2.6,4.9,4.9,6.6c0,0-12.3,18.3-12.9,31.3
						C341,255.7,343.7,259.6,344.2,260.2z"/>
					
						<linearGradient id="SVGID_00000136388339221382992220000014778576471500032409_" gradientUnits="userSpaceOnUse" x1="252.955" y1="117.74" x2="252.955" y2="140.97" gradientTransform="matrix(1 0 0 -1 0 416)">
						<stop  offset="0" style="stop-color:#CCCCFF"/>
						<stop  offset="1" style="stop-color:#755CBB"/>
					</linearGradient>
					
						<path style="opacity:0.5;fill:url(#SVGID_00000136388339221382992220000014778576471500032409_);enable-background:new    ;" d="
						M271.1,298.3c0,0-22.2-3.6-31.2-9.5l0,0c0.1-0.5,0.1-1,0.1-1.5c-0.2-5-4.5-9.4-5.1-12.3c0.1,0.3,0.8,1.8,3.9,4.5
						c3,2.5,6.2,4.7,9.5,6.6l0.4,0.2c6.4,3.8,11.9,6.3,15.9,8.2h0.1C268.1,296.2,270.5,297.3,271.1,298.3L271.1,298.3z"/>
					
						<linearGradient id="SVGID_00000077304865450849292420000001294479630722913723_" gradientUnits="userSpaceOnUse" x1="298.095" y1="124.12" x2="298.095" y2="135.41" gradientTransform="matrix(1 0 0 -1 0 416)">
						<stop  offset="0" style="stop-color:#CCCCFF"/>
						<stop  offset="1" style="stop-color:#755CBB"/>
					</linearGradient>
					
						<path style="opacity:0.5;fill:url(#SVGID_00000077304865450849292420000001294479630722913723_);enable-background:new    ;" d="
						M318.5,280.6c-0.1,0.9-2.1,2.8-2.6,4.8c0,0-8.1,8.6-38.3,6c0.2-0.9,6.5,0.4,21.2-2.6C313.1,286,318.2,280.9,318.5,280.6z"/>
					<path class="st61" d="M323.6,164l-19.3,6.2l-5.6,2.6H290l-3.1,0.2l-1.6,0.1l-4.7,0.4l-2.4,0.2l-23.1-8.4l-4.1-1.5l-19-6.9
						l1.7-0.7c12.8-5.1,25.3-11.2,25.3-11.2l4.8-5.9h2.1c1.6-3.6,3-7.3,4-11.2l1.3-5.7c0.1-0.6,0.1-0.8,0.1-0.8l6.8,3.6l22.9,18.3
						c0,1.2,0,2.4,0.1,3.3l0.3,2.3c0.1-0.4,0.1-0.7,0.1-0.7l2.2,0.7l1.5,3.6c0,0,2.6,4,12.7,8.4C319.9,162,321.8,162.9,323.6,164z"
						/>
					
						<linearGradient id="SVGID_00000096019660365782017390000017901104783602713255_" gradientUnits="userSpaceOnUse" x1="297.5967" y1="269.1936" x2="297.5967" y2="346.4388" gradientTransform="matrix(1 0 0 -1 0 416)">
						<stop  offset="2.000000e-02" style="stop-color:#FFC2A9"/>
						<stop  offset="1" style="stop-color:#FF9595"/>
					</linearGradient>
					<path style="fill:url(#SVGID_00000096019660365782017390000017901104783602713255_);" d="M308.9,146.4
						c-6.4,1.1-13,0.1-18.9-2.8c-9.9-4.8-18.2-19-18.8-22.5s3.8-12.8,3.8-20s-3.5-19.6,2.4-26.3s33.2-7.7,42.1,0.9
						c0,0,2.7,6.9,2.7,10.8c0,1.3-0.2,2.6-0.4,3.9c-0.1,0.6-0.2,1.2-0.3,1.9c-0.8,4.7-1.9,10.5-1.4,13c0.2,0.8,0.4,1.7,0.8,2.5l0,0
						c1.1,2.5,2.7,4.5,3,6.7C324.3,117.3,320.5,137.6,308.9,146.4z"/>
					
						<linearGradient id="SVGID_00000077309504285467899710000010090940749508734338_" gradientUnits="userSpaceOnUse" x1="268.8257" y1="300.3253" x2="268.8257" y2="323.11" gradientTransform="matrix(1 0 0 -1 0 416)">
						<stop  offset="2.000000e-02" style="stop-color:#FFC2A9"/>
						<stop  offset="1" style="stop-color:#FF9595"/>
					</linearGradient>
					<path style="fill:url(#SVGID_00000077309504285467899710000010090940749508734338_);" d="M275,99.1c0,0-2.5-6.2-8.6-6.2
						c0,0-3.6,1.4-4.2,4.2c0,0,1.3,10,2.8,14.6s7.1,4,7.1,4C275.1,110.7,276.1,104.8,275,99.1z"/>
					
						<linearGradient id="SVGID_00000042718801152448150000000008031595375536728458_" gradientUnits="userSpaceOnUse" x1="308.3273" y1="291.7308" x2="309.2769" y2="296.6985" gradientTransform="matrix(1 0 0 -1 0 416)">
						<stop  offset="0" style="stop-color:#E1616A"/>
						<stop  offset="1" style="stop-color:#FF8883"/>
					</linearGradient>
					<path style="fill:url(#SVGID_00000042718801152448150000000008031595375536728458_);" d="M298.6,119.4c1-0.1,2,0.1,2.9,0.5
						c0.9,0.7,4.1,3.8,8.2,4.7s6.8-2.6,7.7-2.8s1.8,1.1,1.8,1.1c-0.4-1.1-1.4-1.8-2.5-2.1c0,0-0.9,3.3-6.8,2.2s-8.4-3.7-8.4-3.7
						l-0.3-0.5C300.4,118.8,299.5,119.1,298.6,119.4z"/>
					
						<linearGradient id="SVGID_00000157278710188873072090000006248955836831854268_" gradientUnits="userSpaceOnUse" x1="299.725" y1="295.54" x2="299.725" y2="345.27" gradientTransform="matrix(1 0 0 -1 0 416)">
						<stop  offset="0" style="stop-color:#FFEADB"/>
						<stop  offset="0.99" style="stop-color:#C27CB6"/>
					</linearGradient>
					
						<path style="opacity:0.6;fill:url(#SVGID_00000157278710188873072090000006248955836831854268_);enable-background:new    ;" d="
						M289.9,88.8l0.1-0.6c0,0,5.9-10.3,17.5-10.6s14.3,7,14.3,7l2.2-3.3l-4.9-10l-34.2-0.6l-8.3,6.7l-1,16.5l3.7,21.7l9,4.8l2.5-2.2
						c-0.9-7.3-6.4-13.9-6.4-13.9l4-2.7c0,0,10.1,4.9,16,3.4c0,0,4.4-12.8,4.1-22.4C308.5,82.6,293.4,84.8,289.9,88.8z"/>
					<path class="st66" d="M289.4,89.6c0,0,0.6-3.7,6.9-5.2c7-1.7,12.7-3.1,12.7-3.1s-1.2,4.1-3.6,5.6c0,0-7.4-0.3-11.2,0.6
						S289.4,89.6,289.4,89.6z"/>
					<path class="st66" d="M321.8,84.6c0,0-3.6,2.7-6,9.3c0,0,2.3-3,4.5-3c0.7,0,1.2,0.5,1.3,1.2c0,0.1,0,0.2,0,0.3
						C322.4,89.8,322.5,87.1,321.8,84.6z"/>
					
						<linearGradient id="SVGID_00000116921195647308638740000006312709666144078488_" gradientUnits="userSpaceOnUse" x1="297.275" y1="315.91" x2="297.275" y2="325.76" gradientTransform="matrix(1 0 0 -1 0 416)">
						<stop  offset="0" style="stop-color:#CF6074"/>
						<stop  offset="1" style="stop-color:#F37270"/>
					</linearGradient>
					<path style="fill:url(#SVGID_00000116921195647308638740000006312709666144078488_);" d="M291.8,100.1c0,0,0.4-7.9,8-9.8
						c1.6,2.2,2.7,4.8,3,7.6C302.8,97.8,298.8,97.1,291.8,100.1z"/>
					
						<linearGradient id="SVGID_00000138538080351584383160000011382252448672512142_" gradientUnits="userSpaceOnUse" x1="316.944" y1="312.78" x2="316.944" y2="321.35" gradientTransform="matrix(1 0 0 -1 0 416)">
						<stop  offset="0" style="stop-color:#CF6074"/>
						<stop  offset="1" style="stop-color:#FF817F"/>
					</linearGradient>
					<path style="fill:url(#SVGID_00000138538080351584383160000011382252448672512142_);" d="M313.7,103.2c0,0,0.6-6.3,4.2-8.6
						c0,0,2.5,1.8,2.2,7.1C320.1,101.7,318,101,313.7,103.2z"/>
					<path class="st69" d="M291.8,100.1c0,0,2.5,3.1,9.5,3.7c1-1.8,1.4-3.9,1.2-6C302.4,97.8,296,97.2,291.8,100.1z"/>
					<path class="st69" d="M313.7,103.2v0.9c0,0,1.1,2.2,4.9,2.6c0.9-1.6,1.3-3.3,1.4-5.1C320,101.7,317.5,101.1,313.7,103.2z"/>
					<path class="st70" d="M299.2,97.6c-1.2,1.6-1.7,3.6-1.6,5.6c1.2,0.3,2.4,0.5,3.6,0.6c1.1-1.8,1.5-3.9,1.2-6
						C301.4,97.5,300.3,97.5,299.2,97.6z"/>
					<path class="st70" d="M317.4,101.8c0,0-1,1.1-1.2,4.4c0.8,0.3,1.6,0.5,2.5,0.6c0.9-1.5,1.4-3.3,1.4-5.1
						C319.1,101.5,318.2,101.5,317.4,101.8z"/>
					<path class="st66" d="M298.6,103.4c0,0-0.6-4.2,1.8-5.9l2,0.2c0.4,2.1-0.1,4.2-1.2,6C301.2,103.8,299.2,103.5,298.6,103.4z"/>
					<path class="st66" d="M318.3,101.6c-0.7,1.5-1.1,3.2-1.3,4.8c0.5,0.2,1.1,0.3,1.7,0.3c1-1.5,1.5-3.3,1.4-5.1
						C319.4,101.5,318.8,101.5,318.3,101.6z"/>
					<path class="st71" d="M291.8,100.1c0,0,4.6-2.7,12.5-1.2l-1.5-1.1C299,96.9,294.9,97.7,291.8,100.1z"/>
					<path class="st71" d="M313.7,103.2c2.5-1.2,5.3-1.5,8.1-0.9L320,101C320,101,317.1,100.5,313.7,103.2z"/>
					<path class="st10" d="M296.8,100.1c0.9-0.1,1.8,0.2,2.4,0.9C298.3,101.2,297.3,100.9,296.8,100.1z"/>
					<path class="st10" d="M315.4,103.8c0,0,2-0.4,2.7,0.5C318.1,104.3,317,105,315.4,103.8z"/>
					<path class="st72" d="M292.2,100.6c2.6,2.4,5.9,3.9,9.4,4.4l0.1-2.1l-0.5,0.9C301.2,103.8,295.7,103.4,292.2,100.6z"/>
					<path class="st72" d="M313.7,104.1c0,0,0.6,2.3,5.3,3.3l-0.1-1.1l-0.3,0.4C318.7,106.8,315.3,106.3,313.7,104.1z"/>
					<path class="st73" d="M304.3,113.4c1.7-0.3,3.3-0.3,5,0c3.2,0.4,6.9,1.3,8.8,0c0,0-2.6,2.6-4.9,3s-5.8-1.6-5.8-1.6H306
						C305.3,114.4,304.7,114,304.3,113.4z"/>
					<path class="st74" d="M306.1,114.8c0.4-0.3,0.9-0.4,1.5-0.4c0.7,0.1,1.3,1.1,1.3,1.1C308.1,115.1,307.1,114.8,306.1,114.8z"/>
					<path class="st75" d="M318.1,113.4c0.9-0.8-3.5-8.6-5.6-8.9s-4,8.7-4,8.7s2.9,0.4,5.7,0.8S318.1,113.4,318.1,113.4z"/>
					
						<linearGradient id="SVGID_00000075871041839934357350000014957956843734802580_" gradientUnits="userSpaceOnUse" x1="317.7662" y1="307.79" x2="317.7662" y2="327.0833" gradientTransform="matrix(1 0 0 -1 0 416)">
						<stop  offset="0" style="stop-color:#FFEADB"/>
						<stop  offset="0.99" style="stop-color:#C27CB6"/>
					</linearGradient>
					
						<path style="opacity:0.6;fill:url(#SVGID_00000075871041839934357350000014957956843734802580_);enable-background:new    ;" d="
						M321.2,88.9c-1.2-0.2-5.4,4.9-5.4,4.9s-2.6,8.2-2.1,10.6s7,3.7,7,3.7l0.3-0.4l0,0c-0.3-0.8-0.6-1.6-0.8-2.5
						c-0.5-2.5,0.6-8.3,1.4-13c0.2-0.6,0.3-1.2,0.3-1.9C321.9,89.7,321.8,89,321.2,88.9z"/>
					
						<linearGradient id="SVGID_00000029767936264699512900000002595459652458824840_" gradientUnits="userSpaceOnUse" x1="298.6187" y1="268.2372" x2="298.6187" y2="361.88" gradientTransform="matrix(1 0 0 -1 0 416)">
						<stop  offset="0" style="stop-color:#2E33A0"/>
						<stop  offset="1" style="stop-color:#0665A5"/>
					</linearGradient>
					<path style="fill:url(#SVGID_00000029767936264699512900000002595459652458824840_);" d="M321,122.3c-1.3-2.8-0.5-4.2-12.1-5.7
						c-16.4-2.2-17.8,2.8-20.5,2.1c-0.1,0-0.2-0.1-0.3-0.1c-3-1.2-10.1-8.1-10.3-17.5c-0.2-9.8,6.4-16.7,6.4-16.7
						c-2.4-2-3.3-7.8-0.8-10.2s6.9-1.9,17.6-0.8s10.7,0.5,10.7,0.5c3.4,0.9,5.4,4.1,5.9,5.1c0.1,0.2,0.2,0.3,0.2,0.3l1.3-1.2
						c2.2,3.2,3.2,7,2.9,10.9c0,0,5.9-11.9,5.2-13.6c-1.3-2.8-2.9-5.5-4.8-8l0,0c0,0-1-9.1-3.8-9.1s-15,2.7-15,2.7
						c0.8-2.1,1.2-4.4,1.1-6.7l0,0c-4,3.5-7.8,3.9-13.3,6.5c-2,0.8-3.7,2.1-5.1,3.7l-0.4,0.4l-0.4,0.5c-0.4,0.5-0.8,1-1.2,1.5
						c0,0,0,0-0.1,0.1l0,0c-0.5,0.5-1,1-1.6,1.5c-3.6,2.9-11.5,4.9-12.5,8s1.2,7.3,2.3,11.7c0.7,2.7,0.9,5.5,0.6,8.2
						c2.4,3.5,3.3,7.8,2.5,12c-1.1,6.4-3.5,7.4-3.5,7.4c-1,2.1-1.3,4.5-0.9,6.8c3.5,13.9,18,22.2,18,22.2
						c12.9,4.8,21.4,2.7,21.4,2.7l0,0c9.4-6.1,12.6-26.3,12.7-27.3C323.1,120.3,321.4,123,321,122.3z M315.2,135.2
						c-2.3-0.4-2.8-6.1-3.5-6.9s-4.9-0.4-4.9-0.4s-3.8,4.3-5.3,4.4s-9.6-3.2-7.9-8.1s7.9-5.6,7.9-5.6c2.3,1.7,5,2.8,7.9,3
						c4.7,0.3,6.5-0.6,7-0.8s3.6,1.1,3.5,5.4C320,129.2,317.5,135.5,315.2,135.2L315.2,135.2z"/>
					<path class="st78" d="M314.6,106.2c0,0,4.1,5.1,3.7,7c-0.4,2.1-5.1,3.2-5.1,3.2s3.8-1.3,4.6-3.2
						C317.1,110.7,316,108.4,314.6,106.2z"/>
					
						<linearGradient id="SVGID_00000144313554023776103330000003897231572076486583_" gradientUnits="userSpaceOnUse" x1="323.2224" y1="327.18" x2="323.2224" y2="348.78" gradientTransform="matrix(1 0 0 -1 0 416)">
						<stop  offset="0" style="stop-color:#FFEADB"/>
						<stop  offset="0.99" style="stop-color:#8860C7"/>
					</linearGradient>
					
						<path style="opacity:0.6;fill:url(#SVGID_00000144313554023776103330000003897231572076486583_);enable-background:new    ;" d="
						M322.1,88.8c0.3-3.9-0.8-7.7-2.9-10.9c1.8-3.3,2.9-7,3.3-10.7l0,0c0.7,2.3,1.3,4.7,1.5,7.1l3.3,0.9
						C327.9,76.9,322.1,88.8,322.1,88.8z"/>
					
						<linearGradient id="SVGID_00000171694452396697560660000015662389263839513271_" gradientUnits="userSpaceOnUse" x1="293.787" y1="268.3072" x2="293.787" y2="361.85" gradientTransform="matrix(1 0 0 -1 0 416)">
						<stop  offset="0" style="stop-color:#CCC2DB"/>
						<stop  offset="0.99" style="stop-color:#8860C7"/>
					</linearGradient>
					
						<path style="opacity:0.6;fill:url(#SVGID_00000171694452396697560660000015662389263839513271_);enable-background:new    ;" d="
						M317.6,78.8c-0.5-1-2.5-4.2-5.9-5.1c0,0,0,0.7-10.7-0.5s-15-1.7-17.6,0.7s-1.6,8.2,0.8,10.2c0,0-6.5,6.9-6.4,16.7
						c0.2,9.4,7.3,16.4,10.3,17.5l-0.1,1c0,0,0.5,21.5,5.8,23.2s16.1,0.8,17.1,1.8s-0.1,2.6-0.2,2.8l0,0c0,0-8.5,2.1-21.4-2.7
						c0,0-14.5-8.3-18-22.2c-0.4-2.3-0.1-4.7,0.9-6.8c0,0,2.4-1,3.5-7.4c0.8-4.2-0.1-8.5-2.5-12c0.3-2.8,0.1-5.5-0.6-8.2
						c-1.1-4.4-3.3-8.6-2.3-11.7c3.5,0.6,7.1-0.2,10-2.2c0,0,1.1-1.5,5.8-2.2s23.5,1.1,23.5,1.1c-1.8-1.3-3.8-2.1-5.9-2.6
						c-3.8-1-16.6,0.2-18,0.3c1.5-0.3,16-2.8,17.7-2.3s8.1,3.4,8.1,3.4c-0.5-2.7-6.1-9.7-6.1-9.7c-4.4,0.1-8.8,0.5-13.2,1.2
						c-2.8,0.5-5.5,1.7-7.7,3.5l1.2-1.5l0.4-0.5l0.4-0.4l1.8-0.3l9.1-3.7c3.1-1.6,7-5.7,7.5-6.2l0,0c0.1,2.3-0.3,4.6-1.1,6.7
						c7.7-1,10.3-0.5,10.3-0.5C317.5,65.4,317.6,78.8,317.6,78.8z"/>
					
						<linearGradient id="SVGID_00000123410852367792542700000006618239911752756919_" gradientUnits="userSpaceOnUse" x1="300.0703" y1="268.2379" x2="300.0703" y2="272.2579" gradientTransform="matrix(1 0 0 -1 0 416)">
						<stop  offset="0" style="stop-color:#776D7E"/>
						<stop  offset="1" style="stop-color:#9D68C2"/>
					</linearGradient>
					
						<path style="opacity:0.5;fill:url(#SVGID_00000123410852367792542700000006618239911752756919_);enable-background:new    ;" d="
						M289.2,144.6c3.9-0.8,7.9-1,11.9-0.8c7.1,0.3,11.2,0.3,9.5,3.6C310.5,147.3,301.6,149.4,289.2,144.6z"/>
					
						<linearGradient id="SVGID_00000154384099685099686850000012457535624735079588_" gradientUnits="userSpaceOnUse" x1="311.865" y1="355.13" x2="311.865" y2="358.12" gradientTransform="matrix(1 0 0 -1 0 416)">
						<stop  offset="0" style="stop-color:#1F77D1"/>
						<stop  offset="1" style="stop-color:#0686C9"/>
					</linearGradient>
					<path style="fill:url(#SVGID_00000154384099685099686850000012457535624735079588_);" d="M314,60.4c0,0,4.3-1.7,6.1-1.4
						c-0.4-0.5-0.8-0.9-1.4-1.1c-0.7-0.2-15,3-15,3S312.6,59.8,314,60.4z"/>
					
						<linearGradient id="SVGID_00000173144380422640933000000004221173693682984879_" gradientUnits="userSpaceOnUse" x1="292.835" y1="345.29" x2="292.835" y2="354.1239" gradientTransform="matrix(1 0 0 -1 0 416)">
						<stop  offset="0" style="stop-color:#1F77D1"/>
						<stop  offset="1" style="stop-color:#0686C9"/>
					</linearGradient>
					<path style="fill:url(#SVGID_00000173144380422640933000000004221173693682984879_);" d="M305.2,62c0,0-0.3,4.7-1.9,6.4
						l-17.7,2.3l-5.2-0.9c1.6-0.8,3.1-2,4.2-3.4C286.9,63.8,298.4,61.2,305.2,62z"/>
					
						<linearGradient id="SVGID_00000165914844187233187620000000379653274228486306_" gradientUnits="userSpaceOnUse" x1="324.86" y1="340.81" x2="324.86" y2="348.78" gradientTransform="matrix(1 0 0 -1 0 416)">
						<stop  offset="0" style="stop-color:#1F77D1"/>
						<stop  offset="1" style="stop-color:#0686C9"/>
					</linearGradient>
					<path style="fill:url(#SVGID_00000165914844187233187620000000379653274228486306_);" d="M322.4,67.2c0.7,2.3,1.3,4.7,1.6,7.1
						l3.3,0.9C326.2,72.2,324.6,69.5,322.4,67.2z"/>
					
						<linearGradient id="SVGID_00000029015614714976709950000001817700268210022276_" gradientUnits="userSpaceOnUse" x1="272.1296" y1="305.7386" x2="261.9324" y2="318.2252" gradientTransform="matrix(1 0 0 -1 0 416)">
						<stop  offset="0" style="stop-color:#FFEADB"/>
						<stop  offset="0.99" style="stop-color:#B060F4"/>
					</linearGradient>
					
						<path style="opacity:0.8;fill:url(#SVGID_00000029015614714976709950000001817700268210022276_);enable-background:new    ;" d="
						M274.2,107.5c0,0-1.2-6-4.3-8.9c-1.7-1.7-4.1-2.5-6.5-2c0,0,1,11.1,1.9,13.8s2.5,3.4,2.5,3.4c-1.5-1.5-2.3-3.5-2.4-5.5
						c-0.3-3.7-0.4-8.8,0.4-9.4s4.1,1.8,4.1,1.8c-0.9,1.4-1.4,2.9-1.6,4.5c-0.6,3.3,1.7,5.6,2.5,5.6s0-3.8,0.1-4.8
						S272.9,105,274.2,107.5z"/>
					
						<linearGradient id="SVGID_00000034793434258202982650000011509052700244829625_" gradientUnits="userSpaceOnUse" x1="273.1873" y1="307.3396" x2="268.1673" y2="313.4796" gradientTransform="matrix(1 0 0 -1 0 416)">
						<stop  offset="0" style="stop-color:#FFEADB"/>
						<stop  offset="0.99" style="stop-color:#B060F4"/>
					</linearGradient>
					
						<path style="opacity:0.8;fill:url(#SVGID_00000034793434258202982650000011509052700244829625_);enable-background:new    ;" d="
						M271.2,100.1c-2.1,1.5-3.2,4.1-3,6.7c0.4,4.5,2.9,4.3,2.9,3.3s-0.5-3.4-0.2-4.7s2.5-0.8,2.5-0.8
						C272.8,103,272,101.5,271.2,100.1z"/>
					<path class="st87" d="M323.3,120.1c0,0-4.1,18.9-12.7,27.3C310.5,147.3,320.3,143.5,323.3,120.1z"/>
					<path class="st87" d="M318.7,57.9c0,0,2.2,1.7,2.6,7.6s-2.1,12.4-2.1,12.4c2-3.1,3.2-6.6,3.6-10.3
						C323,62.3,320.4,58.6,318.7,57.9z"/>
					
						<linearGradient id="SVGID_00000013162375315500536030000015011831385930259896_" gradientUnits="userSpaceOnUse" x1="292.24" y1="344.4925" x2="309.51" y2="344.4925" gradientTransform="matrix(1 0 0 -1 0 416)">
						<stop  offset="0" style="stop-color:#1F77D1"/>
						<stop  offset="1" style="stop-color:#0686C9"/>
					</linearGradient>
					<path style="fill:url(#SVGID_00000013162375315500536030000015011831385930259896_);" d="M292.2,70.2c3.4,1.1,7,1.8,10.6,2.2
						l6.7,0.6c0,0-2.2-2.2-7-2.8C299.1,69.9,295.7,69.9,292.2,70.2z"/>
					
						<linearGradient id="SVGID_00000042699518793569495560000014628368946673133955_" gradientUnits="userSpaceOnUse" x1="316.6" y1="292.8931" x2="321.83" y2="292.8931" gradientTransform="matrix(1 0 0 -1 0 416)">
						<stop  offset="0" style="stop-color:#1F77D1"/>
						<stop  offset="1" style="stop-color:#0686C9"/>
					</linearGradient>
					<path style="fill:url(#SVGID_00000042699518793569495560000014628368946673133955_);" d="M316.6,120.5c0,0,2.4,0,3.4,3
						c0.5,1.5,0.8,3,1,4.5l0.9-3.3c0,0-1.1-4.2-2.3-5.2c-0.8-0.7-2.3-1.4-3-1.2L316.6,120.5z"/>
					
						<linearGradient id="SVGID_00000182506661850710012380000006283159151483803026_" gradientUnits="userSpaceOnUse" x1="310.13" y1="296.7505" x2="315.78" y2="296.7505" gradientTransform="matrix(1 0 0 -1 0 416)">
						<stop  offset="0" style="stop-color:#1F77D1"/>
						<stop  offset="1" style="stop-color:#0686C9"/>
					</linearGradient>
					<path style="fill:url(#SVGID_00000182506661850710012380000006283159151483803026_);" d="M310.1,117.4l0.4,3.6
						c1.7,0.1,3.3-0.1,4.9-0.6l0.4-2.2C313.9,117.8,312,117.5,310.1,117.4z"/>
					<path class="st87" d="M323.6,164c0,0,17.2,12.6,19.5,16.9s3.1,17.9,6.2,23.8c0,0-2.1-9.6-3.5-17.1s-1.1-7.6-1.9-9.5
						S330.1,167.2,323.6,164z"/>
					<path class="st87" d="M320.5,234c0,0-8.3,35.5-7.9,38s5.8,7.3,6,8.6c0,0-4.1,5.5-3.9,6.7s7.2,8.9,7,11.3c0,0.7-4.6,8.2-4.6,8.2
						s5.1-7.4,5.4-8.5s-6.3-11-6.5-12c-0.5-2.6,3.3-4.5,3.4-6.2s-5.1-5.9-5.1-8.6S320.5,234,320.5,234z"/>
					<path class="st87" d="M322.2,318.7c0,0,18,40.6,24.1,81.3C346.2,400,345.2,360.3,322.2,318.7z"/>
					<path class="st75" d="M208.4,155.8c0,0-4.6-1-6.6-5s-0.7-9.9-0.7-9.9c1.7,3.2,3.5,6.3,5.4,9.4
						C208.4,152.6,208.9,155.3,208.4,155.8z"/>
					<path class="st91" d="M351.7,134.6l3.2,91.8c0.1,3.6,3.1,6.5,6.8,6.5h158.1c3.7,0,6.7-2.9,6.8-6.6l2.2-92.9
						c0.1-3.7-2.9-6.8-6.6-6.9c-0.1,0-0.1,0-0.2,0l-163.6,1.1c-3.7,0-6.7,3.1-6.7,6.8C351.7,134.5,351.7,134.5,351.7,134.6z"/>
					<path class="st92" d="M519.8,233.2H361.6c-3.8,0-6.9-3-7-6.8l-3.2-91.8c-0.1-3.9,2.9-7.1,6.7-7.3c0.1,0,0.2,0,0.3,0l163.6-1.1
						c1.9,0,3.7,0.8,5,2.1c1.3,1.4,2,3.2,2,5.1l-2.2,92.9C526.7,230.1,523.6,233.2,519.8,233.2z M522,126.8L522,126.8l-163.6,1.1
						c-3.6,0-6.5,3-6.5,6.6c0,0.1,0,0.1,0,0.2l3.2,91.8c0.1,3.5,3,6.3,6.5,6.3h158.1c3.5,0,6.4-2.8,6.5-6.4l2.2-92.9
						c0.1-3.6-2.8-6.6-6.4-6.7C522.1,126.8,522,126.8,522,126.8L522,126.8z"/>
					
						<linearGradient id="SVGID_00000086662174000893880360000005613856645634996658_" gradientUnits="userSpaceOnUse" x1="351.7988" y1="283.0551" x2="528.8527" y2="283.0551" gradientTransform="matrix(1 0 0 -1 0 416)">
						<stop  offset="0" style="stop-color:#9D68C2"/>
						<stop  offset="1" style="stop-color:#AEC2FF"/>
					</linearGradient>
					
						<path style="opacity:0.6;fill:url(#SVGID_00000086662174000893880360000005613856645634996658_);enable-background:new    ;" d="
						M351.9,139.3h176.7l0.3-4.8c0.2-4.1-2.9-7.6-7-7.8c-0.2,0-0.3,0-0.5,0l-163.5,1.3c-3.4,0-6.1,2.8-6.1,6.2c0,0,0,0,0,0.1
						L351.9,139.3z"/>
					
						<linearGradient id="SVGID_00000111887347459069274330000007649756104554187934_" gradientUnits="userSpaceOnUse" x1="387.815" y1="216.18" x2="387.815" y2="269.58" gradientTransform="matrix(1 0 0 -1 0 416)">
						<stop  offset="0" style="stop-color:#CCEDFF"/>
						<stop  offset="1" style="stop-color:#9D68C2"/>
					</linearGradient>
					
						<polygon style="opacity:0.3;fill:url(#SVGID_00000111887347459069274330000007649756104554187934_);enable-background:new    ;" points="
						360.8,146.7 360.8,199.8 414.9,199.8 414.9,146.4 					"/>
					
						<linearGradient id="SVGID_00000070111336330305705770000014111372665060665987_" gradientUnits="userSpaceOnUse" x1="478.87" y1="242.22" x2="478.87" y2="265.74" gradientTransform="matrix(1 0 0 -1 0 416)">
						<stop  offset="0" style="stop-color:#CCEDFF"/>
						<stop  offset="1" style="stop-color:#9D68C2"/>
					</linearGradient>
					
						<rect x="467.1" y="150.3" style="opacity:0.3;fill:url(#SVGID_00000070111336330305705770000014111372665060665987_);enable-background:new    ;" width="23.5" height="23.5"/>
					
						<linearGradient id="SVGID_00000049912113881104816780000001518383927457657023_" gradientUnits="userSpaceOnUse" x1="506.62" y1="242.22" x2="506.62" y2="265.74" gradientTransform="matrix(1 0 0 -1 0 416)">
						<stop  offset="0" style="stop-color:#CCEDFF"/>
						<stop  offset="1" style="stop-color:#9D68C2"/>
					</linearGradient>
					
						<rect x="494.9" y="150.3" style="opacity:0.3;fill:url(#SVGID_00000049912113881104816780000001518383927457657023_);enable-background:new    ;" width="23.5" height="23.5"/>
					
						<linearGradient id="SVGID_00000104701196320550373020000017438576347881120647_" gradientUnits="userSpaceOnUse" x1="450.65" y1="242.22" x2="450.65" y2="265.74" gradientTransform="matrix(1 0 0 -1 0 416)">
						<stop  offset="0" style="stop-color:#CCEDFF"/>
						<stop  offset="1" style="stop-color:#9D68C2"/>
					</linearGradient>
					
						<rect x="438.9" y="150.3" style="opacity:0.3;fill:url(#SVGID_00000104701196320550373020000017438576347881120647_);enable-background:new    ;" width="23.5" height="23.5"/>
					<rect x="458.2" y="187.5" class="st98" width="60.1" height="5.6"/>
					<rect x="443.2" y="196.1" class="st98" width="75.2" height="1.7"/>
					<rect x="443.9" y="176.8" class="st98" width="14.4" height="1.7"/>
					<rect x="471.7" y="176.8" class="st98" width="14.4" height="1.7"/>
					<rect x="499.4" y="176.8" class="st98" width="14.4" height="1.7"/>
					<rect x="438.9" y="198.9" class="st98" width="24.2" height="1.7"/>
					<rect x="443.2" y="201.7" class="st98" width="75.2" height="1.7"/>
					<rect x="438.9" y="204.5" class="st98" width="79.5" height="1.7"/>
					<rect x="438.9" y="207.3" class="st98" width="79.5" height="1.7"/>
					<rect x="443.2" y="218.6" class="st98" width="75.2" height="1.7"/>
					<rect x="438.9" y="221.4" class="st98" width="79.5" height="1.7"/>
					<rect x="438.9" y="224.2" class="st98" width="79.5" height="1.7"/>
					<rect x="438.9" y="210.1" class="st98" width="76.3" height="1.7"/>
					<rect x="443.2" y="212.9" class="st98" width="75.2" height="1.7"/>
					<rect x="438.9" y="215.7" class="st98" width="64.4" height="1.7"/>
					<g>
						<path class="st99" d="M375.9,189.2c-8.5,0-15.4-6.9-15.4-15.4s6.9-15.4,15.4-15.4c8.5,0,15.4,6.9,15.4,15.4c0,0,0,0,0,0
							C391.3,182.3,384.4,189.2,375.9,189.2z M375.9,159.4c-7.9,0-14.4,6.4-14.4,14.4s6.4,14.4,14.4,14.4c7.9,0,14.4-6.4,14.4-14.4
							c0,0,0,0,0,0C390.3,165.8,383.9,159.4,375.9,159.4z"/>
					</g>
					<circle class="st10" cx="375.9" cy="173.8" r="8.4"/>
					<g>
						<path class="st99" d="M414.9,161.8c-8.5,0-15.4-6.9-15.4-15.4s6.9-15.4,15.4-15.4s15.4,6.9,15.4,15.4c0,0,0,0,0,0
							C430.2,154.9,423.3,161.8,414.9,161.8z M414.9,132c-7.9,0-14.4,6.4-14.4,14.4s6.4,14.4,14.4,14.4c7.9,0,14.4-6.4,14.4-14.4
							C429.3,138.5,422.8,132,414.9,132C414.9,132,414.9,132,414.9,132L414.9,132z"/>
					</g>
					<circle class="st10" cx="417.1" cy="146.2" r="7.9"/>
					<g>
						<polygon class="st10" points="358.1,132.1 359.2,130.4 365.3,135.7 364.4,137 						"/>
						<polygon class="st10" points="365.4,132.1 364.3,130.4 358.2,135.7 359.2,137 						"/>
					</g>
					<rect x="469.8" y="131.5" class="st10" width="54.4" height="2.7"/>
					
						<linearGradient id="SVGID_00000126325658915369777210000007983212891542790817_" gradientUnits="userSpaceOnUse" x1="197.67" y1="300.01" x2="197.67" y2="324.64" gradientTransform="matrix(1 0 0 -1 0 416)">
						<stop  offset="0" style="stop-color:#D93DE3"/>
						<stop  offset="1" style="stop-color:#FF6DBA"/>
					</linearGradient>
					<polygon style="fill:url(#SVGID_00000126325658915369777210000007983212891542790817_);" points="183.4,92.1 183.4,115.8 
						211.6,116 212,91.4 					"/>
					
						<linearGradient id="SVGID_00000085936402747250375070000001306564587716303250_" gradientUnits="userSpaceOnUse" x1="212.715" y1="300.01" x2="212.715" y2="324.64" gradientTransform="matrix(1 0 0 -1 0 416)">
						<stop  offset="0" style="stop-color:#A242EA"/>
						<stop  offset="1" style="stop-color:#FE117E"/>
					</linearGradient>
					<polygon style="fill:url(#SVGID_00000085936402747250375070000001306564587716303250_);" points="212,91.4 213.8,94.5 
						212.9,116 211.6,116 					"/>
					<polygon class="st10" points="188.4,100.1 191,96.3 205.1,108.2 202.9,111 					"/>
					<polygon class="st10" points="205.5,100.1 202.9,96.3 188.8,108.2 190.9,111 					"/>
					
						<linearGradient id="SVGID_00000054238241564822231190000005129714401246200723_" gradientUnits="userSpaceOnUse" x1="193.4006" y1="40.6327" x2="206.7102" y2="146.6394" gradientTransform="matrix(1 0 0 -1 0 416)">
						<stop  offset="0" style="stop-color:#067EFF"/>
						<stop  offset="1" style="stop-color:#3E37A0"/>
					</linearGradient>
					
						<path style="opacity:0.81;fill:url(#SVGID_00000054238241564822231190000005129714401246200723_);enable-background:new    ;" d="
						M249.3,370.2h-96.7c-4.3,0-7.8-3.4-7.9-7.7l-1.8-79.3c-0.1-4.4,3.4-8,7.7-8.1c0.1,0,0.1,0,0.2,0h100.7c4.4,0,7.9,3.5,7.9,7.9
						c0,0.1,0,0.1,0,0.2l-2.2,79.3C257.1,366.8,253.6,370.2,249.3,370.2z"/>
					<path class="st103" d="M249.3,370.4h-96.7c-4.4,0-8.1-3.6-8.2-8l-1.8-79.3c-0.1-4.5,3.5-8.2,8-8.3c0.1,0,0.1,0,0.2,0h100.7
						c4.5,0,8.2,3.6,8.2,8.1c0,0.1,0,0.2,0,0.2l-2.2,79.3C257.3,366.9,253.7,370.5,249.3,370.4z M150.8,275.3
						c-4.2,0-7.7,3.4-7.7,7.6c0,0.1,0,0.1,0,0.2l1.8,79.3c0.1,4.2,3.5,7.5,7.7,7.5h96.7c4.2,0,7.6-3.3,7.7-7.5l2.2-79.3
						c0.1-4.2-3.2-7.8-7.5-7.9c-0.1,0-0.1,0-0.2,0H150.8z"/>
					<rect x="168.9" y="291.3" class="st10" width="50.8" height="2.2"/>
					<rect x="168.9" y="296.5" class="st10" width="25.4" height="2.2"/>
					<rect x="168.9" y="301" class="st10" width="25.4" height="2.2"/>
					<rect x="197.2" y="301" class="st10" width="20.2" height="2.2"/>
					<rect x="168.9" y="305.4" class="st10" width="41" height="2.2"/>
					<rect x="168.9" y="309.8" class="st10" width="14.6" height="2.2"/>
					<rect x="186.5" y="323.1" class="st10" width="25.2" height="2.2"/>
					<rect x="168.9" y="314.2" class="st10" width="45.7" height="2.2"/>
					<rect x="168.9" y="318.7" class="st10" width="35.2" height="2.2"/>
					<rect x="168.9" y="323.1" class="st10" width="16.6" height="2.2"/>
					<rect x="168.9" y="327.5" class="st10" width="25.4" height="2.2"/>
					<rect x="168.9" y="331.9" class="st10" width="7.3" height="2.2"/>
					<rect x="179.2" y="331.9" class="st10" width="26.5" height="2.2"/>
					<rect x="186.5" y="336.2" class="st10" width="25.2" height="2.2"/>
					<rect x="168.9" y="336.2" class="st10" width="16.6" height="2.2"/>
					<rect x="168.9" y="340.6" class="st10" width="25.4" height="2.2"/>
					<rect x="168.9" y="345.1" class="st10" width="7.3" height="2.2"/>
					<rect x="179.2" y="345.1" class="st10" width="26.5" height="2.2"/>
					
						<linearGradient id="SVGID_00000123411833616196194560000017210955008877336506_" gradientUnits="userSpaceOnUse" x1="504.25" y1="302.69" x2="504.25" y2="311.63" gradientTransform="matrix(1 0 0 -1 0 416)">
						<stop  offset="0" style="stop-color:#459FFF"/>
						<stop  offset="1" style="stop-color:#A96DFF"/>
					</linearGradient>
					<path style="fill:url(#SVGID_00000123411833616196194560000017210955008877336506_);" d="M508.7,108.8c0,2.5-2,4.5-4.5,4.5
						s-4.5-2-4.5-4.5s2-4.5,4.5-4.5S508.7,106.4,508.7,108.8L508.7,108.8z"/>
					
						<linearGradient id="SVGID_00000043433154462293666010000001270132078041486980_" gradientUnits="userSpaceOnUse" x1="84.25" y1="197.96" x2="84.25" y2="209.08" gradientTransform="matrix(1 0 0 -1 0 416)">
						<stop  offset="0" style="stop-color:#459FFF"/>
						<stop  offset="1" style="stop-color:#A96DFF"/>
					</linearGradient>
					<path style="fill:url(#SVGID_00000043433154462293666010000001270132078041486980_);" d="M89.8,212.5c0,3.1-2.5,5.6-5.6,5.6
						s-5.6-2.5-5.6-5.6c0-3.1,2.5-5.6,5.6-5.6c0,0,0,0,0,0C87.3,206.9,89.8,209.4,89.8,212.5z"/>
					
						<linearGradient id="SVGID_00000050659285833180042380000005767948352976001431_" gradientUnits="userSpaceOnUse" x1="517.37" y1="302.69" x2="517.37" y2="311.63" gradientTransform="matrix(1 0 0 -1 0 416)">
						<stop  offset="0" style="stop-color:#B31A8F"/>
						<stop  offset="1" style="stop-color:#FE117E"/>
					</linearGradient>
					<circle style="fill:url(#SVGID_00000050659285833180042380000005767948352976001431_);" cx="517.4" cy="108.8" r="4.5"/>
					
						<linearGradient id="SVGID_00000023265595009908214240000001332762816428356486_" gradientUnits="userSpaceOnUse" x1="229.2" y1="273.27" x2="229.2" y2="279.59" gradientTransform="matrix(1 0 0 -1 0 416)">
						<stop  offset="0" style="stop-color:#B31A8F"/>
						<stop  offset="1" style="stop-color:#FE117E"/>
					</linearGradient>
					<circle style="fill:url(#SVGID_00000023265595009908214240000001332762816428356486_);" cx="229.2" cy="139.6" r="3.2"/>
					
						<linearGradient id="SVGID_00000062902500926834208280000001425494505294050187_" gradientUnits="userSpaceOnUse" x1="440.86" y1="133.84" x2="440.86" y2="140.16" gradientTransform="matrix(1 0 0 -1 0 416)">
						<stop  offset="0" style="stop-color:#8642A0"/>
						<stop  offset="1" style="stop-color:#6456C0"/>
					</linearGradient>
					<circle style="fill:url(#SVGID_00000062902500926834208280000001425494505294050187_);" cx="440.9" cy="279" r="3.2"/>
					
						<linearGradient id="SVGID_00000100375943683818895940000015843908295822635933_" gradientUnits="userSpaceOnUse" x1="112.34" y1="102.67" x2="112.34" y2="108.32" gradientTransform="matrix(1 0 0 -1 0 416)">
						<stop  offset="0" style="stop-color:#8642A0"/>
						<stop  offset="1" style="stop-color:#6456C0"/>
					</linearGradient>
					<circle style="fill:url(#SVGID_00000100375943683818895940000015843908295822635933_);" cx="112.3" cy="310.5" r="2.8"/>
					
						<linearGradient id="SVGID_00000181769614323618519250000000497186054459509431_" gradientUnits="userSpaceOnUse" x1="136.0395" y1="133.23" x2="136.0395" y2="179.85" gradientTransform="matrix(1 0 0 -1 0 416)">
						<stop  offset="0" style="stop-color:#D906E3"/>
						<stop  offset="1" style="stop-color:#FF6DF9"/>
					</linearGradient>
					
						<path style="opacity:0.73;fill:url(#SVGID_00000181769614323618519250000000497186054459509431_);enable-background:new    ;" d="
						M160.5,282.8h-48.8c-3.9,0-7.1-3.1-7.3-7l-1.1-32.1c-0.1-4,3-7.4,7-7.5c0.1,0,0.2,0,0.3,0h50.9c4,0,7.3,3.3,7.3,7.3
						c0,0.1,0,0.1,0,0.2l-1,32.1C167.6,279.7,164.4,282.8,160.5,282.8z"/>
					<path class="st111" d="M160.5,283h-48.8c-4.1,0-7.4-3.2-7.5-7.3l-1.1-32.1c-0.1-4.2,3.1-7.7,7.3-7.8c0.1,0,0.1,0,0.2,0h50.9
						c4.2,0,7.5,3.4,7.5,7.5c0,0.1,0,0.1,0,0.2l-1,32.1C167.9,279.8,164.6,283,160.5,283z M110.6,236.3c-3.9,0-7,3.1-7,7
						c0,0.1,0,0.2,0,0.3l1.1,32.1c0.1,3.8,3.2,6.8,7,6.8h48.8c3.8,0,6.9-3,7-6.8l1-32.1c0.1-3.9-2.9-7.1-6.7-7.2c-0.1,0-0.2,0-0.3,0
						H110.6z"/>
					<polygon class="st10" points="124.7,247.6 112.7,261.6 124.9,272 124.9,266.6 117.8,260.5 124.4,253 					"/>
					<polygon class="st10" points="145.9,248.3 157.9,262.2 145.6,272.6 145.6,267.2 152.7,261.1 144.8,252.8 					"/>
					<polygon class="st10" points="127.3,272 137.8,248.9 142.7,248.9 130.9,272 					"/>
					
						<linearGradient id="SVGID_00000110442033790342482850000008690388136933101246_" gradientUnits="userSpaceOnUse" x1="458.2345" y1="67.18" x2="458.2345" y2="125.55" gradientTransform="matrix(1 0 0 -1 0 416)">
						<stop  offset="0" style="stop-color:#D906E3"/>
						<stop  offset="1" style="stop-color:#FF6DF9"/>
					</linearGradient>
					
						<path style="opacity:0.73;fill:url(#SVGID_00000110442033790342482850000008690388136933101246_);enable-background:new    ;" d="
						M488.8,348.8h-61.1c-4.9,0-8.9-3.9-9.1-8.8l-1.4-40.1c-0.2-5,3.8-9.2,8.8-9.4c0.1,0,0.2,0,0.3,0H490c5,0,9.1,4.1,9.1,9.1
						c0,0.1,0,0.2,0,0.3l-1.2,40.2C497.8,344.9,493.7,348.8,488.8,348.8z"/>
					<path class="st111" d="M488.8,349.1h-61.1c-5,0-9.2-4-9.4-9l-1.4-40.1c-0.2-5.2,3.9-9.5,9-9.7c0.1,0,0.2,0,0.3,0H490
						c5.2,0,9.4,4.2,9.4,9.4c0,0.1,0,0.2,0,0.3l-1.2,40.1C498,345.1,493.9,349.1,488.8,349.1z M426.4,290.7c-4.9,0-8.9,4-8.9,8.9
						c0,0.1,0,0.2,0,0.3l1.4,40.1c0.1,4.8,4.1,8.6,8.9,8.6h61c4.8,0,8.7-3.8,8.9-8.6l1.2-40.1c0.1-4.9-3.7-9-8.6-9.1
						c-0.1,0-0.2,0-0.3,0L426.4,290.7z"/>
					<rect x="429.5" y="296.9" class="st98" width="55.9" height="33.2"/>
					<polygon class="st10" points="452.5,305.1 452.5,321.9 466.8,312.8 					"/>
					<rect x="429.5" y="336.2" class="st98" width="55.9" height="3"/>
					<rect x="429.5" y="336.2" class="st10" width="14.5" height="3"/>
					
						<linearGradient id="SVGID_00000176750369828679943910000003323272197842090658_" gradientUnits="userSpaceOnUse" x1="450.6837" y1="149.0433" x2="445.7137" y2="191.7333" gradientTransform="matrix(0.97 0.26 0.26 -0.97 -93.56 344.5)">
						<stop  offset="0" style="stop-color:#1852A0"/>
						<stop  offset="1" style="stop-color:#067ED3"/>
					</linearGradient>
					<path style="fill-rule:evenodd;clip-rule:evenodd;fill:url(#SVGID_00000176750369828679943910000003323272197842090658_);" d="
						M388.6,286.4l-2.9,8.3C387.3,290.1,389.6,287.2,388.6,286.4z M385.7,294.8l-2.9,8.4C383.5,302.9,384,299.4,385.7,294.8
						L385.7,294.8z M388.6,286.4l-2.9,8.3C387.3,290.1,389.6,287.2,388.6,286.4z M385.7,294.8l-2.9,8.4
						C383.5,302.9,384,299.4,385.7,294.8L385.7,294.8z M394.1,302l2.8,1.6l3.1-8.4l-3.3-0.5c0.1-0.3,0.1-0.6,0.1-0.9
						c0.2-1.4,0.3-2.8,0.3-4.2l3.4-2.1l-1.6-7.4l-3.3,3.1c-0.4-0.9-1-1.7-1.7-2.5c-0.2-0.2-0.4-0.4-0.6-0.6l2-4.6l-5.4-1.7l0,0
						l-1.3,4.7c-1.3,0-2.5,0.3-3.6,0.9l-0.6-4.4l-5.9,4.5l1.4,3.9c-1.1,1.3-2.1,2.7-2.9,4.2l-2.8-1.6l-3.1,8.4l3.3,0.5
						c-0.3,1.7-0.5,3.4-0.4,5.1l-3.4,2.1l1.6,7.4l3.3-3.1c0.5,1.1,1.3,2.2,2.2,3l-2,4.6l5.3,2l0.8-3l0.6-2c1.3,0,2.5-0.3,3.6-0.9
						l0.6,4.4l5.9-4.5l-1.4-3.9c0.9-1,1.6-2.1,2.3-3.2C393.7,302.7,393.9,302.3,394.1,302z M385.7,294.8c-1.6,4.6,0,9.4-2.9,8.4
						s-4-5.6-2.4-10.2s5.3-7.5,8.2-6.5S387.3,290.1,385.7,294.8L385.7,294.8z M388.6,286.4l-2.9,8.3
						C387.3,290.1,389.6,287.2,388.6,286.4z M385.7,294.8l-2.9,8.4C383.5,302.9,384,299.4,385.7,294.8L385.7,294.8z"/>
					
						<linearGradient id="SVGID_00000104673232391557630120000009140300729814704772_" gradientUnits="userSpaceOnUse" x1="445.8182" y1="149.0961" x2="445.8182" y2="192.8461" gradientTransform="matrix(0.97 0.26 0.26 -0.97 -93.56 344.5)">
						<stop  offset="0" style="stop-color:#1852A0"/>
						<stop  offset="1" style="stop-color:#067ED3"/>
					</linearGradient>
					<path style="fill-rule:evenodd;clip-rule:evenodd;fill:url(#SVGID_00000104673232391557630120000009140300729814704772_);" d="
						M396.9,303.6l3.1-8.4l-3.1-1.5l-0.5-0.2l0.3-4.6l3.5-1.7l-1.1-7.1l-7.5-2.5l1.4,3.3l2.6-5.4l-5.4-1.7l-2.2-0.7l-5.3-2.1l-1,3.6
						l-4.6-2.2l-5.9,4.5l1.8,4.8l-5.5,15.3l-2.7,9.9l5.2,0.6l-1.7,3.9l5.3,2.1l7.5,2.5l-1.2-2.4l-0.8-1.5l2.8,0.9l4.8,1.5l5.9-4.5
						l-3.6-4.3l4.6-2.8L396.9,303.6z M380.4,292.9c1.6-4.6,5.3-7.5,8.2-6.5l-2.9,8.3l-2.9,8.4C379.8,302.1,378.7,297.5,380.4,292.9z
						"/>
					
						<linearGradient id="SVGID_00000031172068144782977270000016836654999550750084_" gradientUnits="userSpaceOnUse" x1="424.8294" y1="203.4897" x2="421.6094" y2="231.0997" gradientTransform="matrix(0.94 0.33 0.52 -1.49 -133.04 477.7)">
						<stop  offset="0" style="stop-color:#188DC1"/>
						<stop  offset="1" style="stop-color:#06BFE7"/>
					</linearGradient>
					<path style="fill-rule:evenodd;clip-rule:evenodd;fill:url(#SVGID_00000031172068144782977270000016836654999550750084_);" d="
						M389.4,301.1l3.1-8.4l-3.3-0.5c0.3-1.7,0.5-3.4,0.4-5.1l3.4-2.2l-1.6-7.4l-3.3,3.1c-0.5-1.1-1.3-2.2-2.2-3l2-4.6l-5.3-2.1
						l-1.4,5c-1.3,0-2.5,0.3-3.6,0.8l-0.6-4.4l-5.8,4.5l1.4,3.9c-1.1,1.3-2.1,2.7-2.9,4.2l-2.8-1.6l-3,8.4l3.3,0.5
						c-0.3,1.7-0.5,3.4-0.4,5.1l-3.4,2.1l1.6,7.4l3.3-3.1c0.5,1.1,1.3,2.2,2.2,3l-2,4.6l5.3,2l1.4-5c1.3,0,2.5-0.3,3.6-0.9l0.6,4.4
						l5.9-4.5l-1.4-3.9c1.1-1.3,2.1-2.7,2.9-4.2L389.4,301.1z M375.2,300.7c-2.9-1-4-5.6-2.4-10.2s5.3-7.5,8.2-6.5s4,5.6,2.4,10.2
						S378.1,301.7,375.2,300.7L375.2,300.7z"/>
					<polygon class="st116" points="400.6,287.5 393,285 389.6,287.2 397.1,289.6 					"/>
					<polygon class="st117" points="392.6,310.1 385,307.6 383.7,303.7 391.2,306.2 					"/>
					<polygon class="st116" points="385.9,277.8 390.1,279 391.5,277.6 394.2,278.5 395.5,275.6 387.9,273.1 					"/>
					<path class="st116" d="M374.9,308.5l4,1.6l-0.3-2.5C377.4,308.3,376.2,308.6,374.9,308.5z"/>
					<path class="st116" d="M375.5,285.9l6.7,3.5c0.5-0.7,1.1-1.3,1.7-1.8C383.9,287.6,382.2,280.3,375.5,285.9z"/>
					<polygon class="st118" points="222.8,37 229.2,49.8 224.9,51.8 218.9,40 					"/>
					<polygon class="st119" points="78.3,336.3 84.3,342.8 86.6,340.1 81,334 					"/>
					<polygon class="st120" points="380.1,115.4 374.1,119 371.7,114.4 378.3,110.6 					"/>
					<polygon class="st120" points="409.6,345.1 401,351.2 398.6,346.6 406.9,341.8 					"/>
					
						<linearGradient id="SVGID_00000005971947935588365970000009859113771241812121_" gradientUnits="userSpaceOnUse" x1="412.3535" y1="327.9008" x2="423.6817" y2="369.9841" gradientTransform="matrix(1 0 0 -1 0 416)">
						<stop  offset="0" style="stop-color:#188DC1"/>
						<stop  offset="1" style="stop-color:#06BFE7"/>
					</linearGradient>
					
						<polygon style="fill-rule:evenodd;clip-rule:evenodd;fill:url(#SVGID_00000005971947935588365970000009859113771241812121_);" points="
						398.2,84.3 396.8,50.6 440.9,50.6 439,84.2 					"/>
					
						<linearGradient id="SVGID_00000021109830333636074320000007116286139675378571_" gradientUnits="userSpaceOnUse" x1="392.8736" y1="332.7546" x2="401.3247" y2="364.1389" gradientTransform="matrix(1 0 0 -1 0 416)">
						<stop  offset="0" style="stop-color:#1852A0"/>
						<stop  offset="1" style="stop-color:#067ED3"/>
					</linearGradient>
					
						<polygon style="fill-rule:evenodd;clip-rule:evenodd;fill:url(#SVGID_00000021109830333636074320000007116286139675378571_);" points="
						396.8,50.6 395.5,52.6 396.8,84.3 398.2,84.3 					"/>
					<polygon class="st10" points="411.4,57.4 404.5,56.6 405.5,79.7 411.4,79.1 411.4,76.7 408,76.8 407.6,59 411.4,59.1 					"/>
					<polygon class="st10" points="425.6,57.4 432.5,56.6 431.5,79.7 425.6,79.1 425.6,76.7 429,76.8 429.4,59 425.6,59.1 					"/>
					
						<linearGradient id="SVGID_00000145017990594340429270000015511340665401949582_" gradientUnits="userSpaceOnUse" x1="111.9258" y1="255.4292" x2="119.6569" y2="284.1232" gradientTransform="matrix(-1 0 0 -1 196.66 416)">
						<stop  offset="0" style="stop-color:#188DC1"/>
						<stop  offset="1" style="stop-color:#06BFE7"/>
					</linearGradient>
					
						<polygon style="fill-rule:evenodd;clip-rule:evenodd;fill:url(#SVGID_00000145017990594340429270000015511340665401949582_);" points="
						94.3,158 95.3,135 65.3,135 66.5,157.9 					"/>
					
						<linearGradient id="SVGID_00000018227947903599095100000000114484788614947491_" gradientUnits="userSpaceOnUse" x1="98.6516" y1="258.7386" x2="104.4138" y2="280.1369" gradientTransform="matrix(-1 0 0 -1 196.66 416)">
						<stop  offset="0" style="stop-color:#1852A0"/>
						<stop  offset="1" style="stop-color:#067ED3"/>
					</linearGradient>
					
						<polygon style="fill-rule:evenodd;clip-rule:evenodd;fill:url(#SVGID_00000018227947903599095100000000114484788614947491_);" points="
						95.3,135 96.2,136.4 95.3,158 94.3,158 					"/>
					<path class="st10" d="M83.8,139.6c1.3-0.1,2.6,0,3.9,0.1c0.6,0.3-0.2,5.6-0.2,5.6l1.3,1.2l-1.2,1.2c0,0,0.1,5.4-0.7,5.9
						s-3.4,0-3.4,0v-1.4c0.9,0.1,1.7,0,2.6-0.2c0.4-0.3,0.3-5,0.3-5l0.6-0.6l-0.6-0.7c0,0,0.1-3.4,0-4.3c0-0.6-2.6-0.6-2.6-0.6
						L83.8,139.6z"/>
					<path class="st10" d="M76.2,139.6c-1.3-0.1-2.6,0-3.9,0.1c-0.6,0.3,0.2,5.6,0.2,5.6l-1.3,1.2l1.2,1.2c0,0-0.1,5.4,0.7,5.9
						s3.4,0,3.4,0v-1.4c-0.8,0.1-1.7,0-2.5-0.2c-0.4-0.3-0.3-5-0.3-5l-0.6-0.6l0.6-0.7c0,0-0.1-3.4,0-4.3c0-0.6,2.6-0.6,2.6-0.6
						L76.2,139.6z"/>
					<path class="st92" d="M347.9,87.3l-7.4-19.3l19.1,4L347.9,87.3z M341.3,68.7l6.7,17.6l10.7-13.9L341.3,68.7z"/>
					
						<rect x="398.9" y="353.9" transform="matrix(0.5888 -0.8083 0.8083 0.5888 -119.9399 472.5154)" class="st92" width="11" height="0.5"/>
					<polygon class="st92" points="339.9,279.2 333,270.5 333.4,270.2 340.3,278.9 					"/>
					<polygon class="st92" points="125.6,339.9 111.7,329.8 112,329.4 125.9,339.5 					"/>
					
						<rect x="110.2" y="334.4" transform="matrix(0.606 -0.7955 0.7955 0.606 -219.4037 226.3554)" class="st92" width="17.1" height="0.5"/>
					
						<rect x="98.6" y="184.7" transform="matrix(0.4652 -0.8852 0.8852 0.4652 -115.1512 189.0021)" class="st92" width="0.5" height="10.1"/>
					<polygon class="st92" points="448,71.4 447.7,71 458,59.2 458.4,59.5 					"/>
					
						<rect x="248.4" y="99.5" transform="matrix(0.8953 -0.4454 0.4454 0.8953 -20.6281 121.7309)" class="st92" width="0.5" height="10.4"/>
					
						<rect x="171.1" y="261.7" transform="matrix(0.7671 -0.6416 0.6416 0.7671 -126.4169 175.8084)" class="st92" width="15.5" height="0.5"/>
				</g>
			</g>
		</g>
	</g>
</g>
</svg>
